<svg xmlns="http://www.w3.org/2000/svg" width="41.876" height="41.876"><path d="M28.266 18.844a3.029 3.029 0 0 0 2.225-.916 3.029 3.029 0 0 0 .916-2.225 3.029 3.029 0 0 0-.916-2.225 3.029 3.029 0 0 0-2.225-.916 3.029 3.029 0 0 0-2.225.916 3.029 3.029 0 0 0-.916 2.225 3.029 3.029 0 0 0 .916 2.225 3.029 3.029 0 0 0 2.225.916Zm-14.657 0a3.029 3.029 0 0 0 2.225-.916 3.029 3.029 0 0 0 .916-2.225 3.029 3.029 0 0 0-.916-2.225 3.029 3.029 0 0 0-2.225-.916 3.029 3.029 0 0 0-2.225.916 3.029 3.029 0 0 0-.916 2.225 3.029 3.029 0 0 0 .916 2.225 3.029 3.029 0 0 0 2.226.916Zm7.328 5.234a11.086 11.086 0 0 0-6.465 2.015 11.484 11.484 0 0 0-4.214 5.313h3.455a8.583 8.583 0 0 1 3.062-3.062 8.054 8.054 0 0 1 4.161-1.125 8.054 8.054 0 0 1 4.161 1.125 8.583 8.583 0 0 1 3.062 3.062h3.455a11.484 11.484 0 0 0-4.214-5.313 11.086 11.086 0 0 0-6.462-2.014Zm0 17.8a20.388 20.388 0 0 1-8.166-1.649 21.144 21.144 0 0 1-6.648-4.475 21.145 21.145 0 0 1-4.475-6.648A20.388 20.388 0 0 1 0 20.938a20.389 20.389 0 0 1 1.649-8.166 21.145 21.145 0 0 1 4.475-6.648 21.147 21.147 0 0 1 6.648-4.475A20.387 20.387 0 0 1 20.938 0a20.387 20.387 0 0 1 8.166 1.649 21.147 21.147 0 0 1 6.648 4.475 21.145 21.145 0 0 1 4.475 6.648 20.389 20.389 0 0 1 1.649 8.166 20.388 20.388 0 0 1-1.649 8.166 21.145 21.145 0 0 1-4.475 6.648 21.144 21.144 0 0 1-6.648 4.475 20.388 20.388 0 0 1-8.166 1.649Z" fill="#fc5375"/></svg>