<svg xmlns="http://www.w3.org/2000/svg" width="41.876" height="41.876" viewBox="0 0 41.876 41.876">
  <path id="sentiment_dissatisfied_FILL1_wght400_GRAD0_opsz24" d="M108.266-861.156a3.029,3.029,0,0,0,2.225-.916,3.029,3.029,0,0,0,.916-2.225,3.029,3.029,0,0,0-.916-2.225,3.029,3.029,0,0,0-2.225-.916,3.029,3.029,0,0,0-2.225.916,3.029,3.029,0,0,0-.916,2.225,3.029,3.029,0,0,0,.916,2.225A3.029,3.029,0,0,0,108.266-861.156Zm-14.657,0a3.029,3.029,0,0,0,2.225-.916,3.029,3.029,0,0,0,.916-2.225,3.029,3.029,0,0,0-.916-2.225,3.029,3.029,0,0,0-2.225-.916,3.029,3.029,0,0,0-2.225.916,3.029,3.029,0,0,0-.916,2.225,3.029,3.029,0,0,0,.916,2.225A3.029,3.029,0,0,0,93.61-861.156Zm7.328,5.234a11.086,11.086,0,0,0-6.465,2.015,11.484,11.484,0,0,0-4.214,5.313h3.455a8.583,8.583,0,0,1,3.062-3.062,8.054,8.054,0,0,1,4.161-1.125,8.054,8.054,0,0,1,4.161,1.125,8.583,8.583,0,0,1,3.062,3.062h3.455a11.484,11.484,0,0,0-4.214-5.313A11.086,11.086,0,0,0,100.938-855.921Zm0,17.8a20.388,20.388,0,0,1-8.166-1.649,21.144,21.144,0,0,1-6.648-4.475,21.145,21.145,0,0,1-4.475-6.648A20.388,20.388,0,0,1,80-859.062a20.389,20.389,0,0,1,1.649-8.166,21.145,21.145,0,0,1,4.475-6.648,21.147,21.147,0,0,1,6.648-4.475A20.387,20.387,0,0,1,100.938-880a20.387,20.387,0,0,1,8.166,1.649,21.147,21.147,0,0,1,6.648,4.475,21.145,21.145,0,0,1,4.475,6.648,20.389,20.389,0,0,1,1.649,8.166,20.388,20.388,0,0,1-1.649,8.166,21.145,21.145,0,0,1-4.475,6.648,21.144,21.144,0,0,1-6.648,4.475A20.388,20.388,0,0,1,100.938-838.124Z" transform="translate(-80 880)" fill="#fc5375"/>
</svg>
