<svg xmlns="http://www.w3.org/2000/svg" width="63.938" height="63.938" viewBox="0 0 63.938 63.938">
  <path id="block_FILL0_wght300_GRAD0_opsz24" d="M131.975-796.062a31.142,31.142,0,0,1-12.468-2.517,32.293,32.293,0,0,1-10.153-6.832,32.276,32.276,0,0,1-6.835-10.148A31.112,31.112,0,0,1,100-828.025a31.142,31.142,0,0,1,2.517-12.468,32.294,32.294,0,0,1,6.832-10.153,32.278,32.278,0,0,1,10.148-6.835A31.113,31.113,0,0,1,131.964-860a31.142,31.142,0,0,1,12.468,2.517,32.293,32.293,0,0,1,10.153,6.832A32.277,32.277,0,0,1,161.42-840.5a31.112,31.112,0,0,1,2.518,12.466,31.142,31.142,0,0,1-2.517,12.468,32.294,32.294,0,0,1-6.832,10.153,32.277,32.277,0,0,1-10.148,6.835A31.111,31.111,0,0,1,131.975-796.062Zm-.006-5.048a26.378,26.378,0,0,0,9.121-1.6,26.689,26.689,0,0,0,8.015-4.637l-37.819-37.819a27.343,27.343,0,0,0-4.621,8.016,26.141,26.141,0,0,0-1.618,9.121,25.982,25.982,0,0,0,7.824,19.1A25.982,25.982,0,0,0,131.97-801.109Zm20.683-9.785a26.689,26.689,0,0,0,4.637-8.016,26.377,26.377,0,0,0,1.6-9.121,25.982,25.982,0,0,0-7.824-19.1,25.982,25.982,0,0,0-19.1-7.824,26.74,26.74,0,0,0-9.143,1.586,25.644,25.644,0,0,0-7.994,4.653Z" transform="translate(-100.001 859.999)" fill="#ffb738"/>
</svg>
