<svg xmlns="http://www.w3.org/2000/svg" width="73.942" height="66.031" viewBox="0 0 73.942 66.031">
  <path id="visibility_off_FILL0_wght300_GRAD0_opsz24" d="M111.845-798.022l-3.969-3.969a8.738,8.738,0,0,0-2.5-7.894,8.577,8.577,0,0,0-8.1-2.708l-3.969-3.969a12.2,12.2,0,0,1,2.453-.805,13.187,13.187,0,0,1,2.752-.268,13.9,13.9,0,0,1,10.211,4.2,13.9,13.9,0,0,1,4.2,10.211,13.682,13.682,0,0,1-.269,2.786A10.652,10.652,0,0,1,111.845-798.022Zm11.241,11-3.9-3.656a38.7,38.7,0,0,0,5.964-5.61,31.447,31.447,0,0,0,4.462-6.936,34.74,34.74,0,0,0-12.678-14.18,33.6,33.6,0,0,0-18.421-5.257,35.568,35.568,0,0,0-5.036.353,34.014,34.014,0,0,0-4.859,1.06L84.5-825.369a35.678,35.678,0,0,1,6.844-1.964,40.191,40.191,0,0,1,7.17-.632,38.693,38.693,0,0,1,22.407,6.851,39.788,39.788,0,0,1,14.564,17.888,39.893,39.893,0,0,1-5.073,8.842A39.175,39.175,0,0,1,123.086-787.025Zm2.854,20.443-14.3-14.19a38.337,38.337,0,0,1-6.025,1.645,37.452,37.452,0,0,1-7.105.639A38.591,38.591,0,0,1,76.1-785.34,40.085,40.085,0,0,1,61.54-803.227a39.261,39.261,0,0,1,5.056-8.737,40.169,40.169,0,0,1,6.823-7.031l-9.787-9.9,3.724-3.724,62.307,62.307Zm-48.8-48.688a39.02,39.02,0,0,0-5.447,5.359,29.346,29.346,0,0,0-4.285,6.684,34.74,34.74,0,0,0,12.678,14.18,33.6,33.6,0,0,0,18.421,5.257,28.547,28.547,0,0,0,4.805-.408q2.392-.408,4.057-.843l-4.472-4.581a10.7,10.7,0,0,1-2.093.584,12.764,12.764,0,0,1-2.3.218,13.9,13.9,0,0,1-10.211-4.2,13.9,13.9,0,0,1-4.2-10.211,12.318,12.318,0,0,1,.218-2.246,12.555,12.555,0,0,1,.584-2.144ZM103.9-805.966ZM92.259-800.156Z" transform="translate(-61.54 832.614)" fill="#ffb738"/>
</svg>
