<svg xmlns="http://www.w3.org/2000/svg" width="63.937" height="63.937" viewBox="0 0 63.937 63.937">
  <path id="task_alt_FILL0_wght300_GRAD0_opsz24" d="M131.975-796.062a31.142,31.142,0,0,1-12.468-2.517,32.294,32.294,0,0,1-10.153-6.832,32.278,32.278,0,0,1-6.835-10.148A31.112,31.112,0,0,1,100-828.025a31.138,31.138,0,0,1,2.518-12.468,32.292,32.292,0,0,1,6.833-10.153,32.283,32.283,0,0,1,10.15-6.835A31.123,31.123,0,0,1,131.97-860a31.307,31.307,0,0,1,10.062,1.6,32.485,32.485,0,0,1,8.705,4.459l-3.65,3.734a27.544,27.544,0,0,0-7.066-3.495,25.649,25.649,0,0,0-8.051-1.249,25.952,25.952,0,0,0-19.055,7.866,25.952,25.952,0,0,0-7.866,19.055,25.952,25.952,0,0,0,7.866,19.055,25.952,25.952,0,0,0,19.055,7.866,25.952,25.952,0,0,0,19.055-7.866,25.952,25.952,0,0,0,7.866-19.055,26.313,26.313,0,0,0-.233-3.507,23.979,23.979,0,0,0-.7-3.372l4.077-4.109a33.188,33.188,0,0,1,1.414,5.339,32.168,32.168,0,0,1,.489,5.649,31.134,31.134,0,0,1-2.517,12.468,32.285,32.285,0,0,1-6.832,10.15,32.278,32.278,0,0,1-10.148,6.833A31.119,31.119,0,0,1,131.975-796.062Zm-4.782-17.654-13.137-13.137L117.6-830.4l9.591,9.591,33.2-33.25,3.546,3.546Z" transform="translate(-100.001 859.999)" fill="#057be2"/>
</svg>
