<?xml version="1.0" encoding="utf-8"?>
<!-- Generator: Adobe Illustrator 27.8.1, SVG Export Plug-In . SVG Version: 6.00 Build 0)  -->
<svg version="1.1" id="Capa_1" xmlns="http://www.w3.org/2000/svg" xmlns:xlink="http://www.w3.org/1999/xlink" x="0px" y="0px"
	 viewBox="0 0 49.6 46.3" style="enable-background:new 0 0 49.6 46.3;" xml:space="preserve">
<style type="text/css">
	.st0{fill:#345183;}
</style>
<polygon class="st0" points="32.3,22.1 32.3,31.1 17.3,31.1 17.3,38.4 0,38.4 0,46.3 17.3,46.3 32.3,46.3 34.6,46.3 49.6,46.3
	49.6,22.1 "/>
<g>
	<path class="st0" d="M24.2,18.2c1.5,0,2.7-1.2,2.7-2.7c0-1.5-1.2-2.7-2.7-2.7c-1.5,0-2.7,1.2-2.7,2.7C21.5,17,22.7,18.2,24.2,18.2z
		"/>
	<path class="st0" d="M27.8,19.8h-6.4c-1.6,0-2.9,1.3-2.9,2.9v6.2h11.6v-6.7C30.1,20.9,29.1,19.8,27.8,19.8z"/>
</g>
<g>
	<path class="st0" d="M40.7,9.5c1.5,0,2.7-1.2,2.7-2.7c0-1.5-1.2-2.7-2.7-2.7c-1.5,0-2.7,1.2-2.7,2.7C38,8.3,39.2,9.5,40.7,9.5z"/>
	<path class="st0" d="M44.3,11.1h-6.4c-1.6,0-2.9,1.3-2.9,2.9v6.2h11.6v-6.7C46.6,12.2,45.6,11.1,44.3,11.1z"/>
</g>
<g>
	<path class="st0" d="M8.3,25.6c1.5,0,2.7-1.2,2.7-2.7c0-1.5-1.2-2.7-2.7-2.7c-1.5,0-2.7,1.2-2.7,2.7C5.6,24.4,6.8,25.6,8.3,25.6z"
		/>
	<path class="st0" d="M11.9,27.2H5.5c-1.6,0-2.9,1.3-2.9,2.9v6.2h11.6v-6.7C14.2,28.3,13.2,27.2,11.9,27.2z"/>
</g>
</svg>
