<svg xmlns="http://www.w3.org/2000/svg" xml:space="preserve" id="Capa_1" x="0" y="0" style="enable-background:new 0 0 49.6 46.3" version="1.1" viewBox="0 0 49.6 46.3"><style>.st0{fill:#345183}</style><path d="M32.3 22.1v9h-15v7.3H0v7.9H49.6V22.1zM24.2 18.2c1.5 0 2.7-1.2 2.7-2.7 0-1.5-1.2-2.7-2.7-2.7-1.5 0-2.7 1.2-2.7 2.7 0 1.5 1.2 2.7 2.7 2.7z" class="st0"/><path d="M27.8 19.8h-6.4c-1.6 0-2.9 1.3-2.9 2.9v6.2h11.6v-6.7c0-1.3-1-2.4-2.3-2.4zM40.7 9.5c1.5 0 2.7-1.2 2.7-2.7 0-1.5-1.2-2.7-2.7-2.7-1.5 0-2.7 1.2-2.7 2.7 0 1.5 1.2 2.7 2.7 2.7zM44.3 11.1h-6.4c-1.6 0-2.9 1.3-2.9 2.9v6.2h11.6v-6.7c0-1.3-1-2.4-2.3-2.4zM8.3 25.6c1.5 0 2.7-1.2 2.7-2.7 0-1.5-1.2-2.7-2.7-2.7-1.5 0-2.7 1.2-2.7 2.7 0 1.5 1.2 2.7 2.7 2.7zM11.9 27.2H5.5c-1.6 0-2.9 1.3-2.9 2.9v6.2h11.6v-6.7c0-1.3-1-2.4-2.3-2.4z" class="st0"/></svg>