<svg xmlns="http://www.w3.org/2000/svg" xml:space="preserve" style="enable-background:new 0 0 315.3 379.2" viewBox="0 0 315.3 379.2"><style>.st8{display:inline}.st11,.st12,.st13,.st9{fill:none;stroke:#4d4d4d;stroke-width:.1904;stroke-miterlimit:10}.st11,.st12,.st13{stroke-width:.2291}.st12,.st13{stroke-width:.2177}.st13{stroke-width:.2325}</style><switch><g><g id="Layer_1"><linearGradient id="SVGID_1_" x1="157.643" x2="157.643" y1="384.374" y2="-18.029" gradientUnits="userSpaceOnUse"><stop offset="0" style="stop-color:#4878b9"/><stop offset=".164" style="stop-color:#457db7"/><stop offset=".453" style="stop-color:#3b8bb2"/><stop offset=".831" style="stop-color:#22a0a6"/><stop offset="1" style="stop-color:#08aa9e"/></linearGradient><path d="M125.8 379.2H20c-11 0-20-9-20-20s9-20 20-20h105.8c82.4 0 149.5-67.1 149.5-149.5S208.2 40.3 125.8 40.3H80c-11 0-20-9-20-20s9-20 20-20h45.8c104.5 0 189.5 85 189.5 189.5s-85 189.4-189.5 189.4z" style="fill:url(#SVGID_1_)"/><linearGradient id="SVGID_2_" x1="20.964" x2="20.964" y1="384.374" y2="-18.029" gradientUnits="userSpaceOnUse"><stop offset="0" style="stop-color:#4878b9"/><stop offset=".164" style="stop-color:#457db7"/><stop offset=".453" style="stop-color:#3b8bb2"/><stop offset=".831" style="stop-color:#22a0a6"/><stop offset="1" style="stop-color:#08aa9e"/></linearGradient><circle cx="21" cy="21" r="21" style="fill:url(#SVGID_2_)"/><linearGradient id="SVGID_3_" x1="117.64" x2="117.64" y1="384.374" y2="-18.029" gradientUnits="userSpaceOnUse"><stop offset="0" style="stop-color:#4878b9"/><stop offset=".164" style="stop-color:#457db7"/><stop offset=".453" style="stop-color:#3b8bb2"/><stop offset=".831" style="stop-color:#22a0a6"/><stop offset="1" style="stop-color:#08aa9e"/></linearGradient><path d="M20.7 100.3h105.1c30 0 56.5 14.8 72.8 37.5 3.8 5.2 9.7 8.5 16.2 8.5h.8c15.9 0 25.4-17.9 16.2-30.9-23.4-33.3-62.2-55.1-105.9-55.1H20C8.5 60.3-.7 70 0 81.6c.7 10.6 10 18.7 20.7 18.7z" style="fill:url(#SVGID_3_)"/><linearGradient id="SVGID_4_" x1="120.77" x2="120.77" y1="384.374" y2="-18.029" gradientUnits="userSpaceOnUse"><stop offset="0" style="stop-color:#4878b9"/><stop offset=".164" style="stop-color:#457db7"/><stop offset=".453" style="stop-color:#3b8bb2"/><stop offset=".831" style="stop-color:#22a0a6"/><stop offset="1" style="stop-color:#08aa9e"/></linearGradient><path d="M221.1 223.2c-7.1 0-13.7 3.8-17.1 10-15.3 27.4-44.6 46-78.2 46H20.7c-10.7 0-20 8-20.6 18.7-.8 11.6 8.5 21.3 20 21.3h105.8c48.7 0 91.1-27 113.2-66.8 7.3-13.1-2.2-29.3-17.2-29.3h-.8z" style="fill:url(#SVGID_4_)"/><linearGradient id="SVGID_5_" x1="233.902" x2="233.902" y1="384.374" y2="-18.029" gradientUnits="userSpaceOnUse"><stop offset="0" style="stop-color:#4878b9"/><stop offset=".164" style="stop-color:#457db7"/><stop offset=".453" style="stop-color:#3b8bb2"/><stop offset=".831" style="stop-color:#22a0a6"/><stop offset="1" style="stop-color:#08aa9e"/></linearGradient><circle cx="233.9" cy="184.7" r="21" style="fill:url(#SVGID_5_)"/><linearGradient id="SVGID_6_" x1="97.642" x2="97.642" y1="384.374" y2="-18.029" gradientUnits="userSpaceOnUse"><stop offset="0" style="stop-color:#4878b9"/><stop offset=".164" style="stop-color:#457db7"/><stop offset=".453" style="stop-color:#3b8bb2"/><stop offset=".831" style="stop-color:#22a0a6"/><stop offset="1" style="stop-color:#08aa9e"/></linearGradient><path d="M125.8 120.3H20.7c-10.7 0-20 8-20.6 18.7-.8 11.6 8.5 21.3 20 21.3h105c15.9 0 29.5 12.2 30.3 28 .8 16.9-12.7 31-29.4 31H79.4c-11 0-20 9-20 20s9 20 20 20h45c38.9 0 71.5-31.8 70.9-70.7-.7-37.8-31.6-68.3-69.5-68.3z" style="fill:url(#SVGID_6_)"/><linearGradient id="SVGID_7_" x1="20.964" x2="20.964" y1="384.374" y2="-18.029" gradientUnits="userSpaceOnUse"><stop offset="0" style="stop-color:#4878b9"/><stop offset=".164" style="stop-color:#457db7"/><stop offset=".453" style="stop-color:#3b8bb2"/><stop offset=".831" style="stop-color:#22a0a6"/><stop offset="1" style="stop-color:#08aa9e"/></linearGradient><circle cx="21" cy="239" r="21" style="fill:url(#SVGID_7_)"/></g></g></switch></svg>