<svg xmlns="http://www.w3.org/2000/svg" xml:space="preserve" style="enable-background:new 0 0 164.3 406.9" viewBox="0 0 164.3 406.9"><style>.st9{display:inline}.st10,.st12,.st13,.st14{fill:none;stroke:#4d4d4d;stroke-width:.1904;stroke-miterlimit:10}.st12,.st13,.st14{stroke-width:.2291}.st13,.st14{stroke-width:.2177}.st14{stroke-width:.2325}</style><switch><g><g id="Layer_1"><linearGradient id="SVGID_1_" x1="80.964" x2="80.964" y1="412.014" y2="-20.361" gradientUnits="userSpaceOnUse"><stop offset="0" style="stop-color:#4878b9"/><stop offset=".164" style="stop-color:#457db7"/><stop offset=".453" style="stop-color:#3b8bb2"/><stop offset=".831" style="stop-color:#22a0a6"/><stop offset="1" style="stop-color:#08aa9e"/></linearGradient><path d="M81 406.9c-11 0-20-9-20-20V80c0-11 9-20 20-20s20 9 20 20v306.9c0 11-9 20-20 20z" style="fill:url(#SVGID_1_)"/><linearGradient id="SVGID_2_" x1="80.964" x2="80.964" y1="412.014" y2="-20.361" gradientUnits="userSpaceOnUse"><stop offset="0" style="stop-color:#4878b9"/><stop offset=".164" style="stop-color:#457db7"/><stop offset=".453" style="stop-color:#3b8bb2"/><stop offset=".831" style="stop-color:#22a0a6"/><stop offset="1" style="stop-color:#08aa9e"/></linearGradient><circle cx="81" cy="21" r="21" style="fill:url(#SVGID_2_)"/><linearGradient id="SVGID_3_" x1="140.964" x2="140.964" y1="412.014" y2="-20.361" gradientUnits="userSpaceOnUse"><stop offset="0" style="stop-color:#4878b9"/><stop offset=".164" style="stop-color:#457db7"/><stop offset=".453" style="stop-color:#3b8bb2"/><stop offset=".831" style="stop-color:#22a0a6"/><stop offset="1" style="stop-color:#08aa9e"/></linearGradient><path d="M161 243.5V20.7c0-10.7-8-20-18.7-20.6C130.6-.7 121 8.5 121 20v223.5c0 11 9 20 20 20s20-9 20-20z" style="fill:url(#SVGID_3_)"/><linearGradient id="SVGID_4_" x1="140.964" x2="140.964" y1="412.014" y2="-20.361" gradientUnits="userSpaceOnUse"><stop offset="0" style="stop-color:#4878b9"/><stop offset=".164" style="stop-color:#457db7"/><stop offset=".453" style="stop-color:#3b8bb2"/><stop offset=".831" style="stop-color:#22a0a6"/><stop offset="1" style="stop-color:#08aa9e"/></linearGradient><path d="M121 360.4v25.8c0 10.7 8 20 18.7 20.6 11.6.8 21.3-8.5 21.3-20v-26.5c0-11-9-20-20-20-11.1.1-20 9-20 20.1z" style="fill:url(#SVGID_4_)"/><linearGradient id="SVGID_5_" x1="143.366" x2="143.366" y1="412.014" y2="-20.361" gradientUnits="userSpaceOnUse"><stop offset="0" style="stop-color:#4878b9"/><stop offset=".164" style="stop-color:#457db7"/><stop offset=".453" style="stop-color:#3b8bb2"/><stop offset=".831" style="stop-color:#22a0a6"/><stop offset="1" style="stop-color:#08aa9e"/></linearGradient><circle cx="143.4" cy="301.9" r="21" style="fill:url(#SVGID_5_)"/><linearGradient id="SVGID_6_" x1="20.964" x2="20.964" y1="412.014" y2="-20.361" gradientUnits="userSpaceOnUse"><stop offset="0" style="stop-color:#4878b9"/><stop offset=".164" style="stop-color:#457db7"/><stop offset=".453" style="stop-color:#3b8bb2"/><stop offset=".831" style="stop-color:#22a0a6"/><stop offset="1" style="stop-color:#08aa9e"/></linearGradient><path d="M41 87.2V20.7C41 10 33 .7 22.3.1 10.6-.7 1 8.5 1 20v67.2c0 11 9 20 20 20s20-9 20-20z" style="fill:url(#SVGID_6_)"/><linearGradient id="SVGID_7_" x1="20.964" x2="20.964" y1="412.014" y2="-20.361" gradientUnits="userSpaceOnUse"><stop offset="0" style="stop-color:#4878b9"/><stop offset=".164" style="stop-color:#457db7"/><stop offset=".453" style="stop-color:#3b8bb2"/><stop offset=".831" style="stop-color:#22a0a6"/><stop offset="1" style="stop-color:#08aa9e"/></linearGradient><path d="M1 204.1v182.1c0 10.7 8 20 18.7 20.6 11.6.8 21.3-8.5 21.3-20V204.1c0-11-9-20-20-20-11.1 0-20 9-20 20z" style="fill:url(#SVGID_7_)"/><linearGradient id="SVGID_8_" x1="20.964" x2="20.964" y1="412.014" y2="-20.361" gradientUnits="userSpaceOnUse"><stop offset="0" style="stop-color:#4878b9"/><stop offset=".164" style="stop-color:#457db7"/><stop offset=".453" style="stop-color:#3b8bb2"/><stop offset=".831" style="stop-color:#22a0a6"/><stop offset="1" style="stop-color:#08aa9e"/></linearGradient><circle cx="21" cy="145.6" r="21" style="fill:url(#SVGID_8_)"/></g></g></switch></svg>