<svg xmlns="http://www.w3.org/2000/svg" xml:space="preserve" style="enable-background:new 0 0 421.6 421.7" viewBox="0 0 421.6 421.7"><style>.st9{display:inline}.st10,.st12,.st13,.st14{fill:none;stroke:#4d4d4d;stroke-width:.1904;stroke-miterlimit:10}.st12,.st13,.st14{stroke-width:.2291}.st13,.st14{stroke-width:.2177}.st14{stroke-width:.2325}</style><switch><g><g id="Layer_1"><linearGradient id="SVGID_1_" x1="92.536" x2="418.536" y1="415.635" y2="85.635" gradientUnits="userSpaceOnUse"><stop offset="0" style="stop-color:#4878b9"/><stop offset=".164" style="stop-color:#457db7"/><stop offset=".453" style="stop-color:#3b8bb2"/><stop offset=".831" style="stop-color:#22a0a6"/><stop offset="1" style="stop-color:#08aa9e"/></linearGradient><path d="M104.7 421.7c-5.1 0-10.2-2-14.1-5.9-7.8-7.8-7.8-20.5 0-28.3l256.8-256.8c7.8-7.8 20.5-7.8 28.3 0 7.8 7.8 7.8 20.5 0 28.3L118.9 415.9c-3.9 3.9-9.1 5.8-14.2 5.8z" style="fill:url(#SVGID_1_)"/><linearGradient id="SVGID_2_" x1="93.564" x2="419.564" y1="416.651" y2="86.651" gradientUnits="userSpaceOnUse"><stop offset="0" style="stop-color:#4878b9"/><stop offset=".164" style="stop-color:#457db7"/><stop offset=".453" style="stop-color:#3b8bb2"/><stop offset=".831" style="stop-color:#22a0a6"/><stop offset="1" style="stop-color:#08aa9e"/></linearGradient><circle cx="400.6" cy="105.8" r="21" style="fill:url(#SVGID_2_)"/><linearGradient id="SVGID_3_" x1="7.605" x2="333.605" y1="331.733" y2="1.734" gradientUnits="userSpaceOnUse"><stop offset="0" style="stop-color:#4878b9"/><stop offset=".164" style="stop-color:#457db7"/><stop offset=".453" style="stop-color:#3b8bb2"/><stop offset=".831" style="stop-color:#22a0a6"/><stop offset="1" style="stop-color:#08aa9e"/></linearGradient><path d="M330.9 5.9c-7.8-7.8-20.5-7.8-28.3 0L107.7 200.8c-7.8 7.8-7.8 20.5 0 28.3 7.8 7.8 20.5 7.8 28.3 0l194.9-195c7.8-7.8 7.8-20.4 0-28.2z" style="fill:url(#SVGID_3_)"/><linearGradient id="SVGID_4_" x1="6.441" x2="332.441" y1="330.584" y2=".584" gradientUnits="userSpaceOnUse"><stop offset="0" style="stop-color:#4878b9"/><stop offset=".164" style="stop-color:#457db7"/><stop offset=".453" style="stop-color:#3b8bb2"/><stop offset=".831" style="stop-color:#22a0a6"/><stop offset="1" style="stop-color:#08aa9e"/></linearGradient><path d="M25 283.5 6.2 302.3c-7.5 7.5-8.4 19.7-1.4 27.7 4 4.6 9.6 6.9 15.1 6.9 5.1 0 10.2-2 14.1-5.9l19.3-19.3c7.8-7.8 7.8-20.5 0-28.3-7.8-7.7-20.5-7.7-28.3.1z" style="fill:url(#SVGID_4_)"/><linearGradient id="SVGID_5_" x1="-635.208" x2="-309.208" y1="3131.011" y2="2801.011" gradientTransform="rotate(-45.001 -3596.944 893.194)" gradientUnits="userSpaceOnUse"><stop offset="0" style="stop-color:#4878b9"/><stop offset=".164" style="stop-color:#457db7"/><stop offset=".453" style="stop-color:#3b8bb2"/><stop offset=".831" style="stop-color:#22a0a6"/><stop offset="1" style="stop-color:#08aa9e"/></linearGradient><circle cx="78.9" cy="254.7" r="21" style="fill:url(#SVGID_5_)"/><linearGradient id="SVGID_6_" x1="49.261" x2="375.261" y1="372.885" y2="42.885" gradientUnits="userSpaceOnUse"><stop offset="0" style="stop-color:#4878b9"/><stop offset=".164" style="stop-color:#457db7"/><stop offset=".453" style="stop-color:#3b8bb2"/><stop offset=".831" style="stop-color:#22a0a6"/><stop offset="1" style="stop-color:#08aa9e"/></linearGradient><path d="M140.4 281.2c-7.8-7.8-20.5-7.8-28.3 0l-64 64c-7.8 7.8-7.8 20.5 0 28.3 3.9 3.9 9 5.9 14.1 5.9s10.2-2 14.1-5.9l64-64c7.9-7.8 7.9-20.5.1-28.3z" style="fill:url(#SVGID_6_)"/><linearGradient id="SVGID_7_" x1="50.425" x2="376.425" y1="374.035" y2="44.035" gradientUnits="userSpaceOnUse"><stop offset="0" style="stop-color:#4878b9"/><stop offset=".164" style="stop-color:#457db7"/><stop offset=".453" style="stop-color:#3b8bb2"/><stop offset=".831" style="stop-color:#22a0a6"/><stop offset="1" style="stop-color:#08aa9e"/></linearGradient><path d="M373.3 48.3c-7.8-7.8-20.5-7.8-28.3 0L194.8 198.5c-7.8 7.8-7.8 20.5 0 28.3 7.8 7.8 20.5 7.8 28.3 0L373.3 76.6c7.8-7.8 7.8-20.5 0-28.3z" style="fill:url(#SVGID_7_)"/><linearGradient id="SVGID_8_" x1="-571.609" x2="-245.609" y1="3193.84" y2="2863.84" gradientTransform="rotate(-45.001 -3596.944 893.194)" gradientUnits="userSpaceOnUse"><stop offset="0" style="stop-color:#4878b9"/><stop offset=".164" style="stop-color:#457db7"/><stop offset=".453" style="stop-color:#3b8bb2"/><stop offset=".831" style="stop-color:#22a0a6"/><stop offset="1" style="stop-color:#08aa9e"/></linearGradient><circle cx="168.3" cy="254.7" r="21" style="fill:url(#SVGID_8_)"/></g></g></switch></svg>