<svg xmlns="http://www.w3.org/2000/svg" xml:space="preserve" style="enable-background:new 0 0 417.6 419.5" viewBox="0 0 417.6 419.5"><style>.st7{display:inline}.st10,.st11,.st12,.st8{fill:none;stroke:#4d4d4d;stroke-width:.1904;stroke-miterlimit:10}.st10,.st11,.st12{stroke-width:.2291}.st11,.st12{stroke-width:.2177}.st12{stroke-width:.2325}</style><switch><g><g id="Layer_1"><linearGradient id="SVGID_1_" x1="209.752" x2="209.752" y1="412.309" y2="-24.351" gradientUnits="userSpaceOnUse"><stop offset="0" style="stop-color:#4878b9"/><stop offset=".164" style="stop-color:#457db7"/><stop offset=".453" style="stop-color:#3b8bb2"/><stop offset=".831" style="stop-color:#22a0a6"/><stop offset="1" style="stop-color:#08aa9e"/></linearGradient><circle cx="209.8" cy="21" r="21" style="fill:url(#SVGID_1_)"/><linearGradient id="SVGID_2_" x1="208.8" x2="208.8" y1="412.309" y2="-24.351" gradientUnits="userSpaceOnUse"><stop offset="0" style="stop-color:#4878b9"/><stop offset=".164" style="stop-color:#457db7"/><stop offset=".453" style="stop-color:#3b8bb2"/><stop offset=".831" style="stop-color:#22a0a6"/><stop offset="1" style="stop-color:#08aa9e"/></linearGradient><path d="M267.6 10.4c-12.4-3.6-24.8 5.8-24.8 18.7v1.3c0 8.6 5.8 16.1 14 18.5 69.9 20.8 121 85.8 120.8 162.4-.3 89-70.8 163.2-159.6 168-97.2 5.2-178-72.4-178-168.6 0-77 51.8-142 122.3-162.3 8.4-2.4 14.4-10 14.4-18.8v-1.2c0-12.9-12.3-22.2-24.7-18.7C63.4 34.8-1.4 117 0 213.8c1.7 114.3 96.3 206.7 210.5 205.7 114.3-1 207-94.3 207-208.8.1-94.7-63.3-174.9-149.9-200.3z" style="fill:url(#SVGID_2_)"/><linearGradient id="SVGID_3_" x1="202.031" x2="202.031" y1="412.309" y2="-24.351" gradientUnits="userSpaceOnUse"><stop offset="0" style="stop-color:#4878b9"/><stop offset=".164" style="stop-color:#457db7"/><stop offset=".453" style="stop-color:#3b8bb2"/><stop offset=".831" style="stop-color:#22a0a6"/><stop offset="1" style="stop-color:#08aa9e"/></linearGradient><path d="M306.2 259.2c-18.8 37.6-58.7 62.9-104.1 60.2-55.3-3.3-99.8-48.8-102-104.2-2.5-62 47.2-113.2 108.7-113.2 42 0 78.4 23.9 96.6 58.8 3.4 6.6 10.3 10.6 17.6 10.6 14.9 0 24.7-15.8 17.8-29C315.2 93 263 59.9 203.3 62 125.2 64.9 62 128.8 60 206.9c-2.1 83.8 65.4 152.6 148.8 152.6 58.2 0 108.7-33.6 133.1-82.4 6.7-13.3-3.1-28.9-17.9-28.9-7.5 0-14.4 4.2-17.8 11z" style="fill:url(#SVGID_3_)"/><linearGradient id="SVGID_4_" x1="339.412" x2="339.412" y1="412.309" y2="-24.351" gradientUnits="userSpaceOnUse"><stop offset="0" style="stop-color:#4878b9"/><stop offset=".164" style="stop-color:#457db7"/><stop offset=".453" style="stop-color:#3b8bb2"/><stop offset=".831" style="stop-color:#22a0a6"/><stop offset="1" style="stop-color:#08aa9e"/></linearGradient><circle cx="339.4" cy="209.8" r="21" style="fill:url(#SVGID_4_)"/><linearGradient id="SVGID_5_" x1="209.005" x2="209.005" y1="412.309" y2="-24.351" gradientUnits="userSpaceOnUse"><stop offset="0" style="stop-color:#4878b9"/><stop offset=".164" style="stop-color:#457db7"/><stop offset=".453" style="stop-color:#3b8bb2"/><stop offset=".831" style="stop-color:#22a0a6"/><stop offset="1" style="stop-color:#08aa9e"/></linearGradient><path d="M201.5 122.2c-41.8 3.4-76 36.3-80.9 78 0 .3-.1.6-.1.9-1.7 15.5 17.1 24.5 28.3 13.6l1.9-1.9c5.6-5.4 9.7-12.2 12.4-19.5 7.6-19.9 27.8-33.7 50.8-31.3 21.7 2.3 41.6 22.7 43.4 44.3 2 24.1-13.6 45-35.3 51.1-7.5 2.1-14.2 6.1-19.7 11.6-11.5 11.5-2.5 31.3 13.7 30 .3 0 .6-.1 1-.1 42.4-3.9 76.5-38 80.2-80.4 4.9-54.8-40.8-100.7-95.7-96.3z" style="fill:url(#SVGID_5_)"/><linearGradient id="SVGID_6_" x1="-1656.913" x2="-1656.913" y1="-1918.227" y2="-2354.887" gradientTransform="rotate(45.001 -3561.664 1285.235)" gradientUnits="userSpaceOnUse"><stop offset="0" style="stop-color:#4878b9"/><stop offset=".164" style="stop-color:#457db7"/><stop offset=".453" style="stop-color:#3b8bb2"/><stop offset=".831" style="stop-color:#22a0a6"/><stop offset="1" style="stop-color:#08aa9e"/></linearGradient><circle cx="160" cy="257.2" r="21" style="fill:url(#SVGID_6_)"/></g></g></switch></svg>