<svg xmlns="http://www.w3.org/2000/svg" xml:space="preserve" style="enable-background:new 0 0 379.2 315.3" viewBox="0 0 379.2 315.3"><style>.st9{display:inline}.st10,.st12,.st13,.st14{fill:none;stroke:#4d4d4d;stroke-width:.1904;stroke-miterlimit:10}.st12,.st13,.st14{stroke-width:.2291}.st13,.st14{stroke-width:.2177}.st14{stroke-width:.2325}</style><switch><g><g id="Layer_1"><linearGradient id="SVGID_1_" x1="189.478" x2="189.478" y1="328.396" y2="-23.809" gradientUnits="userSpaceOnUse"><stop offset="0" style="stop-color:#4878b9"/><stop offset=".164" style="stop-color:#457db7"/><stop offset=".453" style="stop-color:#3b8bb2"/><stop offset=".831" style="stop-color:#22a0a6"/><stop offset="1" style="stop-color:#08aa9e"/></linearGradient><path d="M0 125.8V20C0 9 9 0 20 0s20 9 20 20v105.8c0 82.4 67.1 149.5 149.5 149.5S339 208.2 339 125.8V80c0-11 9-20 20-20s20 9 20 20v45.8c0 104.5-85 189.5-189.5 189.5S0 230.3 0 125.8z" style="fill:url(#SVGID_1_)"/><linearGradient id="SVGID_2_" x1="358.277" x2="358.277" y1="328.396" y2="-23.809" gradientUnits="userSpaceOnUse"><stop offset="0" style="stop-color:#4878b9"/><stop offset=".164" style="stop-color:#457db7"/><stop offset=".453" style="stop-color:#3b8bb2"/><stop offset=".831" style="stop-color:#22a0a6"/><stop offset="1" style="stop-color:#08aa9e"/></linearGradient><circle cx="358.3" cy="21" r="21" style="fill:url(#SVGID_2_)"/><linearGradient id="SVGID_3_" x1="185.101" x2="185.101" y1="328.396" y2="-23.809" gradientUnits="userSpaceOnUse"><stop offset="0" style="stop-color:#4878b9"/><stop offset=".164" style="stop-color:#457db7"/><stop offset=".453" style="stop-color:#3b8bb2"/><stop offset=".831" style="stop-color:#22a0a6"/><stop offset="1" style="stop-color:#08aa9e"/></linearGradient><path d="M213.8 142.4c-5.6 8.2-15.3 13.5-26.1 12.9-15.7-1-27.7-14.6-27.7-30.3V20.7c0-10.7-8-20-18.7-20.6C129.7-.7 120 8.5 120 20v104.5c0 38.8 31.7 71.4 70.5 70.8 23.2-.3 43.7-12.2 56.1-30 9.2-13.3-.3-31.4-16.5-31.4-6.4 0-12.6 3.1-16.3 8.5z" style="fill:url(#SVGID_3_)"/><linearGradient id="SVGID_4_" x1="238.957" x2="238.957" y1="328.396" y2="-23.809" gradientUnits="userSpaceOnUse"><stop offset="0" style="stop-color:#4878b9"/><stop offset=".164" style="stop-color:#457db7"/><stop offset=".453" style="stop-color:#3b8bb2"/><stop offset=".831" style="stop-color:#22a0a6"/><stop offset="1" style="stop-color:#08aa9e"/></linearGradient><path d="M259 37V20.7c0-10.7-8-20-18.7-20.6C228.6-.7 219 8.5 219 20v17c0 11 9 20 20 20s20-9 20-20z" style="fill:url(#SVGID_4_)"/><linearGradient id="SVGID_5_" x1="239.083" x2="239.083" y1="328.396" y2="-23.809" gradientUnits="userSpaceOnUse"><stop offset="0" style="stop-color:#4878b9"/><stop offset=".164" style="stop-color:#457db7"/><stop offset=".453" style="stop-color:#3b8bb2"/><stop offset=".831" style="stop-color:#22a0a6"/><stop offset="1" style="stop-color:#08aa9e"/></linearGradient><circle cx="239.1" cy="95.4" r="21" style="fill:url(#SVGID_5_)"/><linearGradient id="SVGID_6_" x1="80.381" x2="80.381" y1="328.396" y2="-23.809" gradientUnits="userSpaceOnUse"><stop offset="0" style="stop-color:#4878b9"/><stop offset=".164" style="stop-color:#457db7"/><stop offset=".453" style="stop-color:#3b8bb2"/><stop offset=".831" style="stop-color:#22a0a6"/><stop offset="1" style="stop-color:#08aa9e"/></linearGradient><path d="M94.9 153c4.4-4.4 6.4-10.6 5.7-16.8-.4-3.4-.6-6.9-.6-10.4V20.7C100 10 92 .7 81.3 0 69.7-.7 60 8.5 60 20v105.8c0 5.3.3 10.6 1 15.7 2 16.5 22.2 23.2 33.9 11.5z" style="fill:url(#SVGID_6_)"/><linearGradient id="SVGID_7_" x1="227.086" x2="227.086" y1="328.396" y2="-23.809" gradientUnits="userSpaceOnUse"><stop offset="0" style="stop-color:#4878b9"/><stop offset=".164" style="stop-color:#457db7"/><stop offset=".453" style="stop-color:#3b8bb2"/><stop offset=".831" style="stop-color:#22a0a6"/><stop offset="1" style="stop-color:#08aa9e"/></linearGradient><path d="M297.6 0C287 .7 279 10 279 20.7v103.6c0 49.4-40.4 91.2-89.8 91-9.6 0-18.9-1.6-27.6-4.5-7.2-2.4-15.1-.5-20.5 4.8-10.5 10.5-6.4 28.4 7.6 33.1 12.7 4.2 26.3 6.6 40.4 6.6 71.4.2 129.8-60.1 129.8-131.5V20c.1-11.5-9.6-20.7-21.3-20z" style="fill:url(#SVGID_7_)"/><linearGradient id="SVGID_8_" x1="107.049" x2="107.049" y1="328.396" y2="-23.809" gradientUnits="userSpaceOnUse"><stop offset="0" style="stop-color:#4878b9"/><stop offset=".164" style="stop-color:#457db7"/><stop offset=".453" style="stop-color:#3b8bb2"/><stop offset=".831" style="stop-color:#22a0a6"/><stop offset="1" style="stop-color:#08aa9e"/></linearGradient><circle cx="107" cy="195.3" r="21" style="fill:url(#SVGID_8_)"/></g></g></switch></svg>