<svg xmlns="http://www.w3.org/2000/svg" xml:space="preserve" style="enable-background:new 0 0 406.9 161.9" viewBox="0 0 406.9 161.9"><switch><g><linearGradient id="a" x1="0" x2="408.005" y1="20.964" y2="20.964" gradientUnits="userSpaceOnUse"><stop offset="0" style="stop-color:#4878b9"/><stop offset=".164" style="stop-color:#457db7"/><stop offset=".453" style="stop-color:#3b8bb2"/><stop offset=".831" style="stop-color:#22a0a6"/><stop offset="1" style="stop-color:#08aa9e"/></linearGradient><path d="M326.9 41H20C9 41 0 32 0 21S9 1 20 1h306.9c11 0 20 9 20 20s-9 20-20 20z" style="fill:url(#a)"/><linearGradient id="b" x1=".05" x2="408.055" y1="20.964" y2="20.964" gradientUnits="userSpaceOnUse"><stop offset="0" style="stop-color:#4878b9"/><stop offset=".164" style="stop-color:#457db7"/><stop offset=".453" style="stop-color:#3b8bb2"/><stop offset=".831" style="stop-color:#22a0a6"/><stop offset="1" style="stop-color:#08aa9e"/></linearGradient><circle cx="385.9" cy="21" r="21" style="fill:url(#b)"/><linearGradient id="c" x1="0" x2="408.005" y1="80.964" y2="80.964" gradientUnits="userSpaceOnUse"><stop offset="0" style="stop-color:#4878b9"/><stop offset=".164" style="stop-color:#457db7"/><stop offset=".453" style="stop-color:#3b8bb2"/><stop offset=".831" style="stop-color:#22a0a6"/><stop offset="1" style="stop-color:#08aa9e"/></linearGradient><path d="M36.5 61H20.7C10 61 .7 69 0 79.6-.7 91.3 8.5 101 20 101h16.5c11 0 20-9 20-20 0-11.1-9-20-20-20z" style="fill:url(#c)"/><linearGradient id="d" x1=".05" x2="408.055" y1="80.964" y2="80.964" gradientUnits="userSpaceOnUse"><stop offset="0" style="stop-color:#4878b9"/><stop offset=".164" style="stop-color:#457db7"/><stop offset=".453" style="stop-color:#3b8bb2"/><stop offset=".831" style="stop-color:#22a0a6"/><stop offset="1" style="stop-color:#08aa9e"/></linearGradient><path d="M386.2 61H153.4c-11 0-20 9-20 20s9 20 20 20h233.5c11.5 0 20.7-9.7 20-21.3-.7-10.7-10-18.7-20.7-18.7z" style="fill:url(#d)"/><linearGradient id="e" x1=".05" x2="408.055" y1="80.964" y2="80.964" gradientUnits="userSpaceOnUse"><stop offset="0" style="stop-color:#4878b9"/><stop offset=".164" style="stop-color:#457db7"/><stop offset=".453" style="stop-color:#3b8bb2"/><stop offset=".831" style="stop-color:#22a0a6"/><stop offset="1" style="stop-color:#08aa9e"/></linearGradient><circle cx="95" cy="81" r="21" style="fill:url(#e)"/><linearGradient id="f" x1="0" x2="408.005" y1="140.964" y2="140.964" gradientUnits="userSpaceOnUse"><stop offset="0" style="stop-color:#4878b9"/><stop offset=".164" style="stop-color:#457db7"/><stop offset=".453" style="stop-color:#3b8bb2"/><stop offset=".831" style="stop-color:#22a0a6"/><stop offset="1" style="stop-color:#08aa9e"/></linearGradient><path d="M197.6 121H20.7c-10.7 0-20 8-20.6 18.7C-.7 151.3 8.5 161 20 161h177.6c11 0 20-9 20-20 0-11.1-9-20-20-20z" style="fill:url(#f)"/><linearGradient id="g" x1=".05" x2="408.055" y1="140.964" y2="140.964" gradientUnits="userSpaceOnUse"><stop offset="0" style="stop-color:#4878b9"/><stop offset=".164" style="stop-color:#457db7"/><stop offset=".453" style="stop-color:#3b8bb2"/><stop offset=".831" style="stop-color:#22a0a6"/><stop offset="1" style="stop-color:#08aa9e"/></linearGradient><path d="M386.2 121h-71.7c-11 0-20 9-20 20s9 20 20 20h72.4c11.5 0 20.7-9.7 20-21.3-.7-10.7-10-18.7-20.7-18.7z" style="fill:url(#g)"/><linearGradient id="h" x1=".05" x2="408.055" y1="140.964" y2="140.964" gradientUnits="userSpaceOnUse"><stop offset="0" style="stop-color:#4878b9"/><stop offset=".164" style="stop-color:#457db7"/><stop offset=".453" style="stop-color:#3b8bb2"/><stop offset=".831" style="stop-color:#22a0a6"/><stop offset="1" style="stop-color:#08aa9e"/></linearGradient><circle cx="256" cy="141" r="21" style="fill:url(#h)"/></g></switch></svg>