<svg xmlns="http://www.w3.org/2000/svg" width="19.541" height="19.541" viewBox="0 0 19.541 19.541">
  <path id="download_FILL0_wght300_GRAD0_opsz24" d="M189.771-765.294l-5.561-5.561,1.373-1.413,3.212,3.212V-780h1.954v10.943l3.212-3.212,1.373,1.413Zm-7.415,4.835a2.273,2.273,0,0,1-1.671-.684,2.273,2.273,0,0,1-.684-1.671v-3.532h1.954v3.532a.383.383,0,0,0,.125.276.383.383,0,0,0,.276.125h14.831a.383.383,0,0,0,.276-.125.383.383,0,0,0,.125-.276v-3.532h1.954v3.532a2.273,2.273,0,0,1-.684,1.671,2.273,2.273,0,0,1-1.671.684Z" transform="translate(-180.001 779.999)" fill="#a8a8a8"/>
</svg>
