<svg xmlns="http://www.w3.org/2000/svg" width="24" height="24" viewBox="0 0 24 24">
  <g id="Grupo_1387" data-name="Grupo 1387" transform="translate(-793 -516)">
    <g id="print_black_24dp" transform="translate(793 516)">
      <path id="Trazado_2040" data-name="Trazado 2040" d="M0,0H24V24H0Z" fill="none"/>
      <path id="Trazado_2041" data-name="Trazado 2041" d="M19,8H18V3H6V8H5a3,3,0,0,0-3,3v6H6v4H18V17h4V11A3,3,0,0,0,19,8ZM8,5h8V8H8Zm8,12v2H8V15h8Zm2-2V13H6v2H4V11a1,1,0,0,1,1-1H19a1,1,0,0,1,1,1v4Z" fill="#057be2"/>
      <circle id="Elipse_97" data-name="Elipse 97" cx="1" cy="1" r="1" transform="translate(17 10.5)" fill="#057be2"/>
    </g>
  </g>
</svg>
