<svg xmlns="http://www.w3.org/2000/svg" width="18" height="23.817" viewBox="0 0 18 23.817">
  <path id="upload_file_FILL0_wght300_GRAD0_opsz24" d="M188.1-840.087h1.8v-5.559l2.22,2.319,1.265-1.34L189-849.248l-4.385,4.58,1.283,1.321,2.2-2.3Zm-5.931,3.905a2.049,2.049,0,0,1-1.539-.658,2.238,2.238,0,0,1-.63-1.608v-19.285a2.238,2.238,0,0,1,.63-1.608A2.049,2.049,0,0,1,182.17-860H191.7l6.3,6.581v14.97a2.238,2.238,0,0,1-.63,1.608,2.049,2.049,0,0,1-1.539.658Zm8.631-16.3v-5.641H182.17a.346.346,0,0,0-.254.12.376.376,0,0,0-.115.265v19.285a.376.376,0,0,0,.115.265.346.346,0,0,0,.254.12h13.661a.346.346,0,0,0,.254-.12.376.376,0,0,0,.115-.265v-14.03Zm-9-5.641v0Z" transform="translate(-180.001 859.999)" fill="#a8a8a8"/>
</svg>
