<svg height="512pt" viewBox="-11 0 512 512" width="512pt" xmlns="http://www.w3.org/2000/svg"><path d="M166.281 98.637H76.758c-8.285 0-15 6.715-15 15s6.715 15 15 15h89.523c8.281 0 15-6.715 15-15s-6.719-15-15-15zM166.281 158.64H76.758c-8.285 0-15 6.715-15 15s6.715 15 15 15h89.523c8.281 0 15-6.714 15-15s-6.719-15-15-15zM166.281 218.645H76.758c-8.285 0-15 6.714-15 15 0 8.285 6.715 15 15 15h89.523c8.281 0 15-6.715 15-15 0-8.286-6.719-15-15-15zM166.281 278.648H76.758c-8.285 0-15 6.715-15 15 0 8.286 6.715 15 15 15h89.523c8.281 0 15-6.714 15-15 0-8.285-6.719-15-15-15zM166.281 339.656H76.758c-8.285 0-15 6.719-15 15 0 8.285 6.715 15 15 15h89.523c8.281 0 15-6.715 15-15 0-8.281-6.719-15-15-15zM216.656 128.637h89.524c8.285 0 15-6.715 15-15s-6.715-15-15-15h-89.524c-8.281 0-15 6.715-15 15s6.719 15 15 15zM216.656 188.64h89.524c8.285 0 15-6.714 15-15s-6.715-15-15-15h-89.524c-8.281 0-15 6.715-15 15s6.719 15 15 15zM274.773 233.645c0-8.286-6.714-15-15-15h-43.117c-8.281 0-15 6.714-15 15 0 8.285 6.719 15 15 15h43.117c8.286 0 15-6.715 15-15zM416.871 345.988c-6.46-5.183-15.898-4.148-21.086 2.313l-38.633 48.164-23.918-17.328c-6.707-4.864-16.09-3.364-20.949 3.343-4.86 6.711-3.36 16.09 3.348 20.95l35.48 25.707a14.956 14.956 0 0 0 8.793 2.855c4.403 0 8.754-1.933 11.707-5.617l47.575-59.3c5.183-6.462 4.148-15.903-2.317-21.087zm0 0"/><path d="M454.785 299.941c-19.539-19.882-44.644-32.414-71.848-36.105V60.41c0-33.308-27.101-60.41-60.41-60.41H60.414C27.102 0 0 27.102 0 60.41v347.473c0 33.312 27.102 60.414 60.41 60.414h210.817C294.949 496.164 329.059 512 365.96 512c68.691 0 124.574-55.922 124.574-124.66 0-32.906-12.695-63.945-35.75-87.399zM30 407.883V60.41C30 43.645 43.645 30 60.414 30h262.113c16.77 0 30.41 13.645 30.41 30.41v202.95c-62.593 6.535-111.55 59.64-111.55 123.98 0 17.832 3.718 35.074 10.851 50.953H60.414c-16.77 0-30.414-13.64-30.414-30.41zM365.96 482c-29.956 0-57.495-13.754-75.562-37.73-12.437-16.512-19.015-36.196-19.015-56.93 0-52.195 42.43-94.66 94.578-94.66.492 0 .988.007 1.48.015l.23.004c24.895.442 48.235 10.48 65.72 28.27 17.504 17.808 27.144 41.383 27.144 66.37 0 52.196-42.426 94.661-94.574 94.661zm0 0"/></svg>