<svg id="Componente_63_4" data-name="Componente 63 – 4" xmlns="http://www.w3.org/2000/svg" width="27.762" height="28.464" viewBox="0 0 27.762 28.464">
  <path id="calendar_clock_FILL0_wght300_GRAD0_opsz24" d="M142.01-856.011h18.751v-3.349a.394.394,0,0,0-.129-.283.394.394,0,0,0-.283-.129H142.422a.394.394,0,0,0-.283.129.394.394,0,0,0-.129.283Zm0,0v0Zm.412,17a2.337,2.337,0,0,1-1.718-.7,2.337,2.337,0,0,1-.7-1.718V-859.36a2.337,2.337,0,0,1,.7-1.718,2.337,2.337,0,0,1,1.718-.7h1.855v-2.833h2.061v2.833h10.148v-2.833h2.009v2.833h1.855a2.337,2.337,0,0,1,1.718.7,2.337,2.337,0,0,1,.7,1.718v7.318a6.507,6.507,0,0,0-.984-.341,9.372,9.372,0,0,0-1.025-.2V-854H142.01v12.569a.394.394,0,0,0,.129.283.394.394,0,0,0,.283.129h8.708a7.257,7.257,0,0,0,.411,1.052,8.193,8.193,0,0,0,.547.957Z" transform="translate(-140.001 864.614)" fill="#818181"/>
  <path id="person_FILL0_wght300_GRAD0_opsz24" d="M187.275-765.517a3.268,3.268,0,0,1-2.4-1,3.268,3.268,0,0,1-1-2.4,3.269,3.269,0,0,1,1-2.4,3.269,3.269,0,0,1,2.4-1,3.268,3.268,0,0,1,2.4,1,3.269,3.269,0,0,1,1,2.4,3.268,3.268,0,0,1-1,2.4A3.268,3.268,0,0,1,187.275-765.517ZM180-758.132v-2.156a2.407,2.407,0,0,1,.387-1.319,2.584,2.584,0,0,1,1.034-.933,14.066,14.066,0,0,1,2.9-1.057,12.559,12.559,0,0,1,2.951-.352,12.559,12.559,0,0,1,2.951.352,14.066,14.066,0,0,1,2.9,1.057,2.584,2.584,0,0,1,1.034.933,2.407,2.407,0,0,1,.387,1.319v2.156Zm1.455-1.455h11.638v-.7a.951.951,0,0,0-.171-.546,1.292,1.292,0,0,0-.463-.409,12.461,12.461,0,0,0-2.556-.935,11.048,11.048,0,0,0-2.629-.318,11.048,11.048,0,0,0-2.629.318,12.461,12.461,0,0,0-2.556.935,1.292,1.292,0,0,0-.463.409.95.95,0,0,0-.171.546Zm5.819-7.386a1.868,1.868,0,0,0,1.37-.57,1.868,1.868,0,0,0,.57-1.37,1.868,1.868,0,0,0-.57-1.37,1.868,1.868,0,0,0-1.37-.57,1.868,1.868,0,0,0-1.37.57,1.868,1.868,0,0,0-.57,1.37,1.868,1.868,0,0,0,.57,1.37A1.868,1.868,0,0,0,187.275-766.972ZM187.275-768.912ZM187.275-759.586Z" transform="translate(-166.786 786.596)" fill="#818181"/>
</svg>
