<svg id="Componente_64_1" data-name="Componente 64 – 1" xmlns="http://www.w3.org/2000/svg" width="27.967" height="28.464" viewBox="0 0 27.967 28.464">
  <path id="calendar_clock_FILL0_wght300_GRAD0_opsz24" d="M142.01-856.011h18.751v-3.349a.394.394,0,0,0-.129-.283.394.394,0,0,0-.283-.129H142.422a.394.394,0,0,0-.283.129.394.394,0,0,0-.129.283Zm0,0v0Zm.412,17a2.337,2.337,0,0,1-1.718-.7,2.337,2.337,0,0,1-.7-1.718V-859.36a2.337,2.337,0,0,1,.7-1.718,2.337,2.337,0,0,1,1.718-.7h1.855v-2.833h2.061v2.833h10.148v-2.833h2.009v2.833h1.855a2.337,2.337,0,0,1,1.718.7,2.337,2.337,0,0,1,.7,1.718v7.318a6.507,6.507,0,0,0-.984-.341,9.372,9.372,0,0,0-1.025-.2V-854H142.01v12.569a.394.394,0,0,0,.129.283.394.394,0,0,0,.283.129h8.708a7.257,7.257,0,0,0,.411,1.052,8.193,8.193,0,0,0,.547.957Z" transform="translate(-140.001 864.614)" fill="#818181"/>
  <path id="settings_FILL0_wght300_GRAD0_opsz24" d="M109.466-845.767l-.285-2.282a3.445,3.445,0,0,1-.617-.282,3.968,3.968,0,0,1-.565-.389l-2.113.893-1.729-3,1.828-1.381q-.026-.167-.037-.336t-.011-.336q0-.16.011-.325t.037-.361l-1.828-1.381,1.729-2.982,2.106.886a4.8,4.8,0,0,1,.578-.393,3.828,3.828,0,0,1,.6-.286l.292-2.282h3.457l.285,2.289a3.542,3.542,0,0,1,.61.286,5.044,5.044,0,0,1,.551.385l2.135-.886,1.729,2.982-1.857,1.4a1.753,1.753,0,0,1,.044.339q0,.158,0,.318t-.007.31a2.162,2.162,0,0,1-.052.361l1.842,1.389-1.729,3-2.109-.9a4.905,4.905,0,0,1-.568.392,3.421,3.421,0,0,1-.593.279l-.285,2.289Zm.979-1.124h1.472l.269-2.007a4.171,4.171,0,0,0,1.048-.426,4.624,4.624,0,0,0,.915-.709l1.861.782.738-1.273-1.625-1.224a3.067,3.067,0,0,0,.127-.57,4.7,4.7,0,0,0,.034-.565,4.58,4.58,0,0,0-.034-.565,2.928,2.928,0,0,0-.127-.556l1.639-1.239-.738-1.273-1.883.794a3.984,3.984,0,0,0-.9-.71,3.869,3.869,0,0,0-1.062-.437l-.236-2.006h-1.487l-.248,2a3.914,3.914,0,0,0-1.059.415,4.463,4.463,0,0,0-.926.72l-1.861-.775-.738,1.273,1.618,1.206a2.73,2.73,0,0,0-.131.555,4.707,4.707,0,0,0-.037.606,4.335,4.335,0,0,0,.037.573,3.278,3.278,0,0,0,.124.555l-1.61,1.224.738,1.273,1.854-.787a4.2,4.2,0,0,0,.912.718,4.241,4.241,0,0,0,1.073.429Zm.758-3.745a2.166,2.166,0,0,0,1.591-.656,2.166,2.166,0,0,0,.656-1.591,2.166,2.166,0,0,0-.656-1.591,2.166,2.166,0,0,0-1.591-.656,2.161,2.161,0,0,0-1.6.656,2.176,2.176,0,0,0-.65,1.591,2.176,2.176,0,0,0,.65,1.591A2.161,2.161,0,0,0,111.2-850.636ZM111.194-852.883Z" transform="translate(-90.266 874.231)" fill="#818181"/>
</svg>
