<svg id="Layer_1" enable-background="new 0 0 510 510" height="512" viewBox="0 0 510 510" width="512" xmlns="http://www.w3.org/2000/svg"><g><path d="m510 217.79-75-59.999-10 60.001 10 59.472 40.636-22.223z" fill="#ff9f40"/><path d="m0 217.79 40.546 42.152 34.454 17.322 10-59.737-10-59.736z" fill="#ffbe40"/><path d="m75 0v157.791 119.473l86.594 78.667 93.406 64.069 10-239.999-10-180.001z" fill="#fff5f5"/><path d="m0 217.79v292.21l97.11-59.098 97.112-79.098z" fill="#ffdf40"/><path d="m255 60h-120v30h120l10-15z" fill="#5ecbf1"/><path d="m255 0v420l104.829-73.127 75.171-69.609v-119.473-157.791z" fill="#ece6f2"/><g fill="#5ecbf1"><path d="m135 120v30h120l10-15-10-15z"/><path d="m135 210h120l10-15-10-15h-120z"/><path d="m165 270h90l10-15-10-15h-90z"/></g><path d="m255 120h105v30h-105z" fill="#4793ff"/><path d="m255 180h30v30h-30z" fill="#4793ff"/><path d="m255 240h90v30h-90z" fill="#4793ff"/><path d="m315.778 371.804 93.316 76.397 100.906 61.799v-292.21z" fill="#ffbe40"/><path d="m194.222 371.804-194.222 138.196h255l10-46-10-44z" fill="#ffbe40"/><path d="m315.778 371.804-60.778 48.196v90h255z" fill="#ff9f40"/></g></svg>