<svg height="512" viewBox="0 0 510 510" width="512" xmlns="http://www.w3.org/2000/svg"><path d="m510 217.79-75-59.999-10 60.001 10 59.472 40.636-22.223z" fill="#ff9f40"/><path d="m0 217.79 40.546 42.152L75 277.264l10-59.737-10-59.736z" fill="#ffbe40"/><path d="M75 0v277.264l86.594 78.667L255 420l10-239.999L255 0z" fill="#fff5f5"/><path d="M0 217.79V510l97.11-59.098 97.112-79.098z" fill="#ffdf40"/><path d="M255 60H135v30h120l10-15z" fill="#5ecbf1"/><path d="M255 0v420l104.829-73.127L435 277.264V0z" fill="#ece6f2"/><g fill="#5ecbf1"><path d="M135 120v30h120l10-15-10-15zM135 210h120l10-15-10-15H135zM165 270h90l10-15-10-15h-90z"/></g><path d="M255 120h105v30H255zM255 180h30v30h-30zM255 240h90v30h-90z" fill="#4793ff"/><path d="m315.778 371.804 93.316 76.397L510 510V217.79zM194.222 371.804 0 510h255l10-46-10-44z" fill="#ffbe40"/><path d="M315.778 371.804 255 420v90h255z" fill="#ff9f40"/></svg>