<svg xmlns="http://www.w3.org/2000/svg" width="22.261" height="22.261" viewBox="0 0 22.261 22.261">
  <path id="linkedin" d="M0,1.594A1.615,1.615,0,0,1,1.635,0H20.626a1.615,1.615,0,0,1,1.635,1.594V20.666a1.615,1.615,0,0,1-1.635,1.594H1.635A1.615,1.615,0,0,1,0,20.666ZM6.877,18.635V8.583H3.537V18.635ZM5.208,7.21A1.742,1.742,0,1,0,5.23,3.737,1.741,1.741,0,1,0,5.185,7.21Zm6.829,11.425V13.021a2.268,2.268,0,0,1,.111-.815,1.827,1.827,0,0,1,1.714-1.222c1.209,0,1.692.921,1.692,2.273v5.377h3.341V12.87c0-3.089-1.647-4.525-3.846-4.525A3.319,3.319,0,0,0,12.036,10v.035h-.022L12.036,10V8.583H8.7c.042.943,0,10.052,0,10.052Z" fill="#fff"/>
</svg>
