<svg xmlns="http://www.w3.org/2000/svg" width="22.261" height="22.261"><path d="M0 1.594A1.615 1.615 0 0 1 1.635 0h18.991a1.615 1.615 0 0 1 1.635 1.594v19.072a1.615 1.615 0 0 1-1.635 1.594H1.635A1.615 1.615 0 0 1 0 20.666Zm6.877 17.041V8.583h-3.34v10.052ZM5.208 7.21a1.742 1.742 0 1 0 .022-3.473 1.741 1.741 0 1 0-.045 3.473Zm6.829 11.425v-5.614a2.268 2.268 0 0 1 .111-.815 1.827 1.827 0 0 1 1.714-1.222c1.209 0 1.692.921 1.692 2.273v5.377h3.341V12.87c0-3.089-1.647-4.525-3.846-4.525A3.319 3.319 0 0 0 12.036 10v.035h-.022l.022-.035V8.583H8.7c.042.943 0 10.052 0 10.052Z" fill="#fff"/></svg>