<svg xmlns="http://www.w3.org/2000/svg" xml:space="preserve" id="Layer_1" x="0" y="0" style="enable-background:new 0 0 612 792" version="1.1" viewBox="0 0 612 792"><style>.st0{fill:#fff}</style><switch><g><path d="M134.9 492.4c0-2.1.8-3.8 2.2-4.9 1.5-1.1 3.4-1.7 5.6-1.7 2.1 0 4 .5 5.8 1.5v3.9c-1.4-.7-3.1-1-4.9-1-2.4 0-3.6.6-3.6 1.8 0 .6.3 1.1 1 1.4.7.3 1.5.6 2.5.9 1 .3 2 .6 3 1s1.8 1.2 2.5 2.2c.7 1 1 2.4 1 4 0 1.8-.7 3.2-2.2 4.4-1.4 1.2-3.4 1.8-5.7 1.8-2.4 0-4.7-.6-6.7-1.7v-4.5c1.9 1.2 3.9 1.9 6 1.9 1.5 0 2.4-.2 2.9-.5.4-.3.7-.8.7-1.5 0-.6-.3-1.1-1-1.5-.7-.4-1.5-.7-2.5-1-1-.3-2-.6-3-1s-1.8-1-2.5-1.9-1.1-2.3-1.1-3.6zM155.3 483.2v-4.7h5.2v4.7h-5.2zm.1 24.1v-21.2h5.1v21.2h-5.1zM167.6 507.3V478h5.1v29.2h-5.1zM178.6 496.9c0-3.4.8-6.1 2.3-8.1 1.5-2 3.9-3 7.2-3 3.1 0 5.5 1 7.1 3s2.4 4.4 2.4 7.3c0 1.2 0 2.1-.1 2.6h-13.7c.1 1.8.7 3.1 1.6 3.7 1 .6 2.2.9 3.7.9 2.5 0 4.9-.5 7.2-1.6v4.1c-2.3 1.3-5 1.9-8 1.9-.9 0-1.8-.1-2.7-.2-.8-.2-1.7-.5-2.6-1-.9-.5-1.7-1.1-2.3-1.8-.6-.7-1.2-1.8-1.6-3.1-.3-1.4-.5-3-.5-4.7zm5.1-1.8h8.5c-.1-1.5-.6-2.7-1.3-3.7-.7-1-1.7-1.5-3-1.5s-2.3.4-3 1.2c-.6.8-1 2.2-1.2 4zM202.6 507.3v-19.2c3.1-1.5 6.3-2.3 9.7-2.3 3 0 5.3.8 6.9 2.3 1.7 1.5 2.5 3.7 2.5 6.5v12.7h-5.1v-13.2c0-.6-.1-1-.2-1.4-.1-.4-.3-.8-.6-1.2-.3-.4-.8-.7-1.5-.9s-1.6-.3-2.7-.3c-1.2 0-2.6.1-3.9.4v16.6h-5.1zM225.5 490.5v-4.4h3.6v-6.3h5.1v6.3h5v4.4h-5v10.4c0 .9.2 1.5.6 1.8s1.1.5 2 .5c.9 0 1.7-.2 2.4-.5v4.2c-1 .4-2.1.6-3.3.6h-.1c-2.1 0-3.7-.6-5-1.9-1.2-1.2-1.8-3-1.8-5.1v-10.1h-3.5zM242.7 488.9v-2.8h3.6V485c0-1.5.2-2.7.6-3.8.4-1 .8-1.8 1.3-2.3.5-.5 1.1-.9 1.9-1.2.8-.3 1.3-.4 1.7-.5h1.4c.8 0 1.4.1 2 .2v2.7c-.6-.1-1.1-.2-1.5-.2-.7 0-1.2 0-1.5.1-.4.1-.8.2-1.3.5s-.9.8-1.1 1.5c-.2.7-.4 1.7-.4 2.8v1.2h5.8v2.8h-5.8v18.4h-3.1v-18.4h-3.6zM258.3 502.2c-.6-1.5-.9-3.3-.9-5.5s.3-4 .9-5.5c.6-1.5 1.4-2.6 2.4-3.4 1-.7 2.1-1.3 3.1-1.6 1.1-.3 2.2-.5 3.5-.5 1.3 0 2.5.2 3.5.5 1.1.3 2.1.8 3.1 1.6s1.8 1.9 2.4 3.4c.6 1.5.9 3.3.9 5.5s-.3 4-.9 5.5c-.6 1.5-1.4 2.6-2.4 3.4s-2.1 1.3-3.1 1.6c-1.1.3-2.2.5-3.5.5-1.3 0-2.4-.2-3.5-.5s-2.1-.8-3.1-1.6-1.8-1.9-2.4-3.4zm3.8-11.7c-1.1 1.3-1.6 3.4-1.6 6.2 0 2.8.5 4.9 1.6 6.2 1.1 1.3 2.8 1.9 5.2 1.9s4.2-.6 5.3-1.9c1.1-1.3 1.6-3.4 1.6-6.2s-.5-4.9-1.6-6.2c-1.1-1.3-2.8-1.9-5.3-1.9s-4.1.6-5.2 1.9zM282.4 507.3v-19.5c3.2-1.3 6.6-2 10.3-2v2.9c-2.3.1-4.7.4-7.2 1.1v17.5h-3.1zM297 500.5V478h5.1v8.1c1.2-.2 2.4-.3 3.5-.3 3.2 0 5.6.9 7.3 2.8 1.7 1.8 2.5 4.5 2.5 7.9 0 1.9-.2 3.6-.7 5-.5 1.4-1.1 2.5-1.8 3.3-.7.7-1.5 1.4-2.4 1.8-.9.5-1.8.8-2.5.9-.7.1-1.4.2-2.1.2-3 0-5.3-.7-6.7-2.1-1.5-1.5-2.2-3.2-2.2-5.1zm5.1.4c0 1.5 1.3 2.3 3.8 2.3 1.6 0 2.7-.6 3.4-1.7.6-1.1 1-2.9 1-5.4 0-2.4-.4-4-1.3-5-.8-.9-2-1.4-3.6-1.4-1.2 0-2.3.1-3.3.4v10.8zM320.5 497.7v-11.6h5.1v12.2c0 1.7.3 2.9 1 3.7.7.7 1.8 1.1 3.4 1.1 1.6 0 2.7-.4 3.4-1.1.7-.7 1-2 1-3.7v-12.2h5.1v11.6c0 3.1-.8 5.5-2.5 7.3-1.7 1.8-4 2.6-7 2.6s-5.3-.9-7-2.6c-1.6-1.8-2.5-4.2-2.5-7.3zM344.4 492.4c0-2.1.8-3.8 2.3-4.9 1.5-1.1 3.4-1.7 5.6-1.7 2.1 0 4 .5 5.8 1.5v3.9c-1.4-.7-3.1-1-4.9-1-2.4 0-3.6.6-3.6 1.8 0 .6.3 1.1 1 1.4.7.3 1.5.6 2.5.9 1 .3 2 .6 3 1s1.8 1.2 2.5 2.2c.7 1 1 2.4 1 4 0 1.8-.7 3.2-2.2 4.4-1.4 1.2-3.4 1.8-5.7 1.8-2.4 0-4.7-.6-6.7-1.7v-4.5c1.9 1.2 3.9 1.9 6 1.9 1.5 0 2.4-.2 2.9-.5s.7-.8.7-1.5c0-.6-.4-1.1-1-1.5-.7-.4-1.5-.7-2.5-1-1-.3-2-.6-3-1s-1.8-1-2.5-1.9c-.9-1.1-1.2-2.3-1.2-3.6zM364.8 483.2v-4.7h5.2v4.7h-5.2zm.1 24.1v-21.2h5.1v21.2h-5.1zM376.8 507.3v-19.2c3.1-1.5 6.3-2.3 9.7-2.3 3 0 5.3.8 6.9 2.3 1.7 1.5 2.5 3.7 2.5 6.5v12.7h-5.1v-13.2c0-.6-.1-1-.2-1.4-.1-.4-.3-.8-.6-1.2-.3-.4-.8-.7-1.5-.9-.7-.2-1.6-.3-2.7-.3-1.2 0-2.6.1-3.9.4v16.6h-5.1zM401.2 496.9c0-3.4.8-6.1 2.3-8.1 1.5-2 3.9-3 7.2-3 3.1 0 5.5 1 7.1 3s2.4 4.4 2.4 7.3c0 1.2 0 2.1-.1 2.6h-13.7c.1 1.8.7 3.1 1.6 3.7 1 .6 2.2.9 3.7.9 2.5 0 4.9-.5 7.2-1.6v4.1c-2.4 1.3-5 1.9-8 1.9-.9 0-1.8-.1-2.6-.2-.8-.2-1.7-.5-2.6-1-.9-.5-1.7-1.1-2.3-1.8-.6-.7-1.2-1.8-1.6-3.1-.4-1.4-.6-3-.6-4.7zm5.1-1.8h8.5c-.1-1.5-.6-2.7-1.3-3.7-.7-1-1.7-1.5-3-1.5s-2.3.4-3 1.2c-.6.8-1.1 2.2-1.2 4zM424.1 492.4c0-2.1.8-3.8 2.2-4.9 1.5-1.1 3.4-1.7 5.6-1.7 2.1 0 4 .5 5.8 1.5v3.9c-1.4-.7-3.1-1-4.9-1-2.4 0-3.6.6-3.6 1.8 0 .6.3 1.1 1 1.4.7.3 1.5.6 2.5.9 1 .3 2 .6 3 1s1.8 1.2 2.5 2.2c.7 1 1 2.4 1 4 0 1.8-.7 3.2-2.2 4.4-1.4 1.2-3.4 1.8-5.7 1.8-2.4 0-4.7-.6-6.7-1.7v-4.5c1.9 1.2 3.9 1.9 6 1.9 1.5 0 2.4-.2 2.9-.5.4-.3.7-.8.7-1.5 0-.6-.3-1.1-1-1.5-.7-.4-1.5-.7-2.5-1-1-.3-2-.6-3-1s-1.8-1-2.5-1.9c-.7-1.1-1.1-2.3-1.1-3.6zM443.2 492.4c0-2.1.8-3.8 2.3-4.9 1.5-1.1 3.4-1.7 5.6-1.7 2.1 0 4 .5 5.8 1.5v3.9c-1.4-.7-3.1-1-4.9-1-2.4 0-3.6.6-3.6 1.8 0 .6.3 1.1 1 1.4.7.3 1.5.6 2.5.9 1 .3 2 .6 3 1s1.8 1.2 2.5 2.2c.7 1 1 2.4 1 4 0 1.8-.7 3.2-2.2 4.4-1.4 1.2-3.4 1.8-5.7 1.8-2.4 0-4.7-.6-6.7-1.7v-4.5c1.9 1.2 3.9 1.9 6 1.9 1.5 0 2.4-.2 2.9-.5s.7-.8.7-1.5c0-.6-.4-1.1-1-1.5-.7-.4-1.5-.7-2.5-1-1-.3-2-.6-3-1s-1.8-1-2.5-1.9c-.8-1.1-1.2-2.3-1.2-3.6z" class="st0"/><circle cx="138.7" cy="418.1" r="4.9" class="st0"/><circle cx="274.8" cy="291.4" r="4.9" class="st0"/><circle cx="317.1" cy="291.4" r="4.9" class="st0"/><circle cx="335.8" cy="351.8" r="4.9" class="st0"/><circle cx="367.8" cy="370.4" r="4.9" class="st0"/><circle cx="320.1" cy="449.8" r="4.9" class="st0"/><circle cx="352.1" cy="418.1" r="4.9" class="st0"/><circle cx="385" cy="307.2" r="4.9" class="st0"/><circle cx="385" cy="386.6" r="4.9" class="st0"/><circle cx="419.1" cy="447.5" r="4.9" class="st0"/><circle cx="452.8" cy="338.4" r="4.9" class="st0"/><circle cx="350.8" cy="323.2" r="4.9" class="st0"/><circle cx="241" cy="323.2" r="4.9" class="st0"/><circle cx="172.7" cy="293.2" r="4.9" class="st0"/><circle cx="206.3" cy="386.3" r="4.9" class="st0"/><circle cx="172.7" cy="368.1" r="4.9" class="st0"/><circle cx="207.3" cy="307.2" r="4.9" class="st0"/><circle cx="172.7" cy="433.7" r="4.9" class="st0"/><circle cx="206.7" cy="449.7" r="4.9" class="st0"/><path d="M274.6 302.3H221c-2.7 0-4.9 2.2-4.9 4.9s2.2 4.9 4.9 4.9h53.9c2.9 0 5.2-2.5 4.9-5.4-.3-2.5-2.6-4.4-5.2-4.4zM279.8 323.5c.3-2.9-2-5.4-4.9-5.4h-20.5c-2.7 0-4.9 2.2-4.9 4.9s2.2 4.9 4.9 4.9h20.3c2.5 0 4.8-1.8 5.1-4.4zM185.8 312.2h7.8c2.7 0 4.9-2.2 4.9-4.9s-2.2-4.9-4.9-4.9h-7.7c-19.8 0-36.5 15.4-37.3 35.1-.4 10 3.2 19.1 9.3 25.9 2.2 2.5 6.2 2 7.9-.9 1.1-1.9.8-4.2-.6-5.8-4.4-4.9-7-11.4-6.8-18.6.5-14.5 12.9-25.9 27.4-25.9zM181.7 293.1c.5 1.9 2.3 3.3 4.3 3.3h75.2c2.7 0 4.9-2.2 4.9-4.9s-2.2-4.9-4.9-4.9h-75.7c-2.8 0-4.8 2.7-4.1 5.4l.3 1.1zM139 428.9c-2.6 0-4.9 1.9-5.1 4.4-.3 2.9 2 5.4 4.9 5.4h20.3c2.7 0 4.9-2.2 4.9-4.9s-2.2-4.9-4.9-4.9H139zM186.4 438.8h41.3c20 0 36.8-15.7 37.3-35.7.5-20.6-16.1-37.5-36.6-37.5 0 0-29.8.1-41.7.1-2.9 0-5.2 2.5-4.9 5.5.3 2.5 2.4 4.4 4.9 4.4l41.6-.1c15 0 27.2 12.4 26.7 27.6-.4 14.6-12.8 25.9-27.3 25.9h-41.4c-2.7 0-4.9 2.2-4.9 4.9s2.2 4.9 5 4.9zM337.2 327.8c2.7 0 4.9-2.2 4.9-4.9s-2.2-4.9-4.9-4.9h-19.8c-2.6 0-4.9 1.9-5.1 4.4-.3 2.9 2 5.4 4.9 5.4h20zM426.2 339.6c.4-11.8-9.1-21.6-20.8-21.6h-40.9c-2.7 0-4.9 2.2-4.9 4.9s2.2 4.9 4.9 4.9h40.9c6.4 0 11.5 5.5 10.9 12-.5 5.7-5.5 9.9-11.2 9.9h-37.3c-2.7 0-4.9 2.2-4.9 4.9s2.2 4.9 4.9 4.9h37.1c11.2 0 20.8-8.7 21.3-19.9zM371.1 381.7h-3.4c-2.7 0-4.9 2.2-4.9 4.9s2.2 4.9 4.9 4.9h3.4c2.7 0 4.9-2.2 4.9-4.9s-2.1-4.9-4.9-4.9zM376.1 307.2c0-2.7-2.2-4.9-4.9-4.9h-53.7c-2.6 0-4.9 1.9-5.1 4.4-.3 2.9 2 5.4 4.9 5.4h53.9c2.7 0 4.9-2.2 4.9-4.9z" class="st0"/><path d="M330.7 296.4h73.9c19.1 0 36 12.4 41.4 30.1.6 2 2.5 3.4 4.7 3.4 3.3 0 5.7-3.2 4.7-6.4-6.7-21.7-27.4-37-50.9-37h-73.8c-2.7 0-4.9 2.2-4.9 4.9 0 2.8 2.2 5 4.9 5zM455.6 353.6c.9-3.2-1.4-6.3-4.7-6.3-2.2 0-4.1 1.4-4.7 3.5-1.8 6.1-5 11.7-9.3 16.5l-3 3.3 3 3.3c8.3 9.1 12.3 21.3 10.8 33.7-1.5 12.2-8.2 22.5-17.6 29.2-1.3.9-2.1 2.4-2.1 4 0 4 4.5 6.3 7.7 4 12.1-8.5 20.5-21.9 22-37.6 1.2-13.3-2.6-26.3-10.7-36.7 3.8-5 6.7-10.8 8.6-16.9zM351.6 409.8c2.7 0 4.9-2.2 4.9-4.9v-52.8c0-2.6-1.9-4.9-4.4-5.1-2.9-.3-5.4 2-5.4 4.9v53c0 2.7 2.2 4.9 4.9 4.9zM361.5 418.3c0 2.7 2.2 4.9 4.9 4.9h38.4c11.3 0 20.9-8.7 21.3-20 .4-11.8-9.1-21.6-20.8-21.6h-6.9c-2.7 0-4.9 2.2-4.9 4.9s2.2 4.9 4.9 4.9h6.6c5.7 0 10.7 4.2 11.2 9.9.6 6.5-4.5 12-10.9 12h-38.9c-2.7.1-4.9 2.3-4.9 5z" class="st0"/><path d="M442 402.4c0-13.4-7.5-25.5-18.5-32 11.2-6.4 18.7-18.4 18.5-32.1-.2-20.1-17.2-36.1-37.4-36.1h-6.2c-2.7 0-4.9 2.2-4.9 4.9s2.2 4.9 4.9 4.9h6.9c15 0 27.2 12.4 26.7 27.5-.4 14.5-12.8 25.9-27.3 25.9h-23.3c-2.7 0-4.9 2.2-4.9 4.9s2.2 4.9 4.9 4.9h23.9c15.7 0 28.8 14.6 26.5 31-1.9 13.2-13.6 22.9-27.1 22.9h-64v-63.7c0-2.7-2.2-4.9-4.9-4.9s-4.9 2.2-4.9 4.9v73.5h74.4c20.2 0 36.7-16.3 36.7-36.5zM185.2 391.3h7.4c2.7 0 4.9-2.2 4.9-4.9s-2.2-4.9-4.9-4.9h-7.4c-23.2 0-42.1-18.7-42.5-41.8-.3-15.4 8-29 20.3-36.7 1.6-1 2.4-3 1.9-4.8l-.3-1.3c-.7-2.8-4-4-6.4-2.5-14.9 9.1-25.1 25.2-25.3 43.8-.5 29.2 23.2 53.1 52.3 53.1zM192.7 444.7H139c-2.6 0-4.9 1.9-5.1 4.4-.3 2.9 2 5.4 4.9 5.4h53.9c2.7 0 4.9-2.2 4.9-4.9s-2.2-4.9-4.9-4.9zM249.2 403c.4-11.9-9.1-21.6-20.8-21.6H220c-2.7 0-4.9 2.2-4.9 4.9s2.2 4.9 4.9 4.9h8.4c6.4 0 11.5 5.5 10.9 12-.5 5.7-5.5 9.9-11.2 9.9h-75.7c-2.7 0-4.9 2.2-4.9 4.9s2.2 4.9 4.9 4.9h75.5c11.2.1 20.9-8.6 21.3-19.9zM405.4 444.8h-69.6c-2.7 0-4.9 2.2-4.9 4.9s2.2 4.9 4.9 4.9h69.8c2.7-.1 4.8-2.2 4.8-4.9s-2.2-4.9-5-4.9zM320.5 346.9c-2-.2-3.8.8-4.7 2.4 3.9 3.1 7 7.1 9.2 11.7v-8.9c0-2.6-1.9-4.9-4.5-5.2zM315.1 401.6v32.3c0 2.7 2.2 4.9 4.9 4.9s4.9-2.2 4.9-4.9v-44.4c-2.2 4.7-5.6 8.9-9.8 12.1z" class="st0"/><path d="M220.4 359.7c.2 0 .3.1.5.1h7.4c13.5 0 25.5 6.3 33.3 16.1v-.6c0-4.1.7-8 2.1-11.6-9.3-8.6-21.8-13.8-35.4-13.8l-43.1.1c-6.4 0-11.5-5.5-10.9-12 .5-5.7 5.5-9.9 11.2-9.9H227c2.7 0 4.9-2.2 4.9-4.9s-2.2-4.9-4.9-4.9h-41.3c-11.3 0-20.9 8.8-21.3 20-.4 11.9 9.1 21.6 20.8 21.6l35.2-.2zM270.7 397.9c.1 1.2.2 2.4.2 3.6.1 5.3-.8 10.4-2.6 15.1 0 .1-.1.1-.1.2-6.1 16.3-22.2 28-40.6 28H220c-2.7 0-4.9 2.2-4.9 4.9s2.2 4.9 4.9 4.9h7.6c9.9 0 19.2-2.7 27.2-7.4l.6-.3c14.3-8.7 24.2-23.9 25.3-41.6-3.8-1.9-7.2-4.4-10-7.4zM306 386.6v6h-10.9v-6h-19.3V376l16.4-22H306v23h4.5v9.5H306zm-10.9-20.9-8.1 11.4h8.1v-11.4z" class="st0"/></g></switch></svg>