<svg xmlns="http://www.w3.org/2000/svg" width="22.261" height="18.088" viewBox="0 0 22.261 18.088">
  <path id="twitter" d="M6.993,20.087a12.906,12.906,0,0,0,13-12.986c0-.195,0-.392-.008-.587a9.3,9.3,0,0,0,2.28-2.368,9.263,9.263,0,0,1-2.628.721,4.593,4.593,0,0,0,2.013-2.528,9.089,9.089,0,0,1-2.9,1.1,4.572,4.572,0,0,0-7.786,4.166A12.974,12.974,0,0,1,1.542,2.836a4.576,4.576,0,0,0,1.416,6.1A4.623,4.623,0,0,1,.89,8.366v.063a4.575,4.575,0,0,0,3.662,4.477,4.456,4.456,0,0,1-1.2.16,4.494,4.494,0,0,1-.854-.079,4.568,4.568,0,0,0,4.267,3.168,9.166,9.166,0,0,1-5.677,1.958A8.793,8.793,0,0,1,0,18.049a13,13,0,0,0,6.993,2.038Z" transform="translate(0 -1.999)" fill="#fff"/>
</svg>
