<svg xmlns="http://www.w3.org/2000/svg" width="22.261" height="18.088"><path fill="#fff" d="M6.993 18.088a12.906 12.906 0 0 0 13-12.986c0-.195 0-.392-.008-.587a9.3 9.3 0 0 0 2.28-2.368 9.263 9.263 0 0 1-2.628.721A4.593 4.593 0 0 0 21.65.34a9.089 9.089 0 0 1-2.9 1.1 4.572 4.572 0 0 0-7.786 4.166A12.974 12.974 0 0 1 1.542.837a4.576 4.576 0 0 0 1.416 6.1 4.623 4.623 0 0 1-2.068-.57v.063a4.575 4.575 0 0 0 3.662 4.477 4.456 4.456 0 0 1-1.2.16 4.494 4.494 0 0 1-.854-.079 4.568 4.568 0 0 0 4.267 3.168 9.166 9.166 0 0 1-5.677 1.958A8.793 8.793 0 0 1 0 16.05a13 13 0 0 0 6.993 2.038Z"/></svg>