<svg xmlns="http://www.w3.org/2000/svg" width="121.229" height="114.805"><defs><clipPath id="a"><path fill="none" d="M0 29.178a4.318 4.318 0 0 0 4.318 4.318h47.956a4.318 4.318 0 0 0 4.317-4.318V0H0Z" data-name="Trazado 1966"/></clipPath></defs><g data-name="Grupo 1255" opacity=".72"><g data-name="Grupo 1254"><g data-name="Grupo 1216"><path fill="#9192ff" d="m29.954 67.088-.129-.135.81-.773.129.135Zm1.617-1.55-.131-.133c.263-.259.527-.526.785-.795l.135.129c-.259.27-.523.539-.789.799Zm1.554-1.618-.138-.126c.248-.272.5-.553.741-.836l.141.122c-.244.285-.495.567-.743.84Zm1.467-1.7-.144-.118c.233-.284.468-.577.7-.872l.147.115c-.233.298-.468.593-.702.878Zm1.381-1.768-.15-.111c.219-.294.44-.6.657-.9l.152.108c-.217.305-.439.61-.659.906Zm1.3-1.829-.155-.1q.313-.463.617-.932l.157.1q-.306.471-.62.935Zm10.222-1.294a2.731 2.731 0 0 1-1.005-.192l.069-.173a2.55 2.55 0 0 0 .936.178h.121l.009.186c-.045.004-.096.001-.131.005Zm1.239-.319-.093-.161a2.027 2.027 0 0 0 .744-.751l.162.092a2.212 2.212 0 0 1-.81.824Zm-10.241-.269-.159-.1q.294-.475.58-.955l.16.1q-.287.482-.582.958Zm7.052-.26a3.269 3.269 0 0 1-.614-.968l.172-.072a3.087 3.087 0 0 0 .579.913Zm4.311-1.4h-.187v-.05a1.937 1.937 0 0 0-.165-.792q-.042-.093-.093-.182l.162-.092q.054.1.1.2a2.125 2.125 0 0 1 .181.869Zm-10.143-.2-.143-.12a7.094 7.094 0 0 1 .795-.808l.122.141a6.916 6.916 0 0 0-.775.794Zm4.929-.474a4.557 4.557 0 0 1-.032-.54 4.8 4.8 0 0 1 .038-.6l.185.023a4.6 4.6 0 0 0-.037.576 4.335 4.335 0 0 0 .031.518Zm-3.265-.965-.1-.159a7.682 7.682 0 0 1 1-.523l.074.172a7.486 7.486 0 0 0-.976.515Zm7.318-.193a4.1 4.1 0 0 0-.953-.531l.07-.173a4.288 4.288 0 0 1 1 .556Zm-5.294-.681-.049-.18a8.024 8.024 0 0 1 1.11-.219l.023.185a7.824 7.824 0 0 0-1.086.219Zm3.284-.155a6.768 6.768 0 0 0-1.1-.115v-.187a6.955 6.955 0 0 1 1.127.118Zm-1.595-.189-.176-.063a5.578 5.578 0 0 1 .493-1.025l.159.1a5.394 5.394 0 0 0-.477.994Zm1.141-1.866-.137-.127q.082-.088.167-.172a6.068 6.068 0 0 1 .683-.581l.11.151a5.854 5.854 0 0 0-.662.563q-.084.087-.162.172Zm1.766-1.3-.083-.167a6.95 6.95 0 0 1 1.053-.419l.055.178a6.787 6.787 0 0 0-1.027.413Zm2.1-.685-.046-.181c.365-.094.728-.191 1.078-.291l.051.179c-.349.108-.713.208-1.08.298Zm2.158-.613-.056-.178c.36-.113.716-.231 1.06-.351l.062.176c-.342.124-.701.243-1.062.357Zm2.119-.741-.067-.174c.349-.135.7-.278 1.033-.423l.074.171c-.336.15-.685.295-1.037.43Zm2.061-.89-.081-.168 1.007-.489.082.168Zm2.014-.979-.082-.168 1.007-.49.082.168Zm2.014-.979-.082-.168 1.007-.49.082.168Zm2.014-.979-.082-.168 1.007-.489.082.168Zm2.014-.979-.082-.168 1.007-.489.082.168Z" data-name="Trazado 1955"/><path fill="#ebebff" d="M61.053 7.522a.948.948 0 0 0 0 .114H85.59a3.887 3.887 0 0 0-3.984-3.644 4.164 4.164 0 0 0-1.909.458A4.352 4.352 0 0 0 77.576.559a4.5 4.5 0 0 0-6.107 1.838 4.9 4.9 0 0 0-.645 2.112 8.872 8.872 0 0 0-3.656-.745c-3.375 0-6.115 1.683-6.115 3.758Z" data-name="Trazado 1956"/><path fill="#9192ff" d="M20.233 64.858H0v-.072a3.236 3.236 0 0 1 3.333-3.053 3.516 3.516 0 0 1 1.493.332 3.643 3.643 0 0 1 1.772-3.135 3.519 3.519 0 0 1 2.7-.341 3.944 3.944 0 0 1 2.4 1.873 4.062 4.062 0 0 1 .529 1.66 7.368 7.368 0 0 1 2.933-.576c2.8 0 5.083 1.412 5.083 3.148a.852.852 0 0 1 0 .1Zm-20.087-.14h19.959v-.023c0-1.659-2.218-3.009-4.943-3.009a7.176 7.176 0 0 0-2.966.6l-.092.042-.007-.1a3.919 3.919 0 0 0-.519-1.7 3.805 3.805 0 0 0-2.317-1.807 3.381 3.381 0 0 0-2.589.327 3.511 3.511 0 0 0-1.7 3.125v.117l-.1-.053a3.363 3.363 0 0 0-1.532-.367 3.1 3.1 0 0 0-3.199 2.849Z" data-name="Trazado 1957"/></g><g data-name="Grupo 1230"><g data-name="Grupo 1220"><g clip-path="url(#a)" data-name="Grupo 1219" transform="translate(59.796 33.665)"><path fill="#fff" d="M0 29.178a4.318 4.318 0 0 0 4.318 4.318h47.956a4.318 4.318 0 0 0 4.317-4.318V0H0Z" data-name="Trazado 1958"/><path fill="#d1d1ff" d="M-2.962 7.44a5.837 5.837 0 0 1 5.041-3.921A5.938 5.938 0 0 1 7.7 6.637a3.5 3.5 0 0 1 3.007 1.692 3.254 3.254 0 0 1-.1 3.358 4.748 4.748 0 0 1 3.391 2.485 4.455 4.455 0 0 1-.091 4.108 5.453 5.453 0 0 1 5.164.187 5.078 5.078 0 0 1 2.441 4.4 5.432 5.432 0 0 1 9.332.425 8.633 8.633 0 0 1 6.063-5.493 9 9 0 0 1 8.049 2.04 5.793 5.793 0 0 1 4.635 6.9 6.37 6.37 0 0 1 2.22 5.844 6.513 6.513 0 0 1-4 4.866l-54.308-.035-4.63-20.72Z" data-name="Trazado 1959"/><g data-name="Grupo 1217" opacity=".8"><path fill="#fff" d="M-3.823 14.321a5.546 5.546 0 0 1 10.3-.812 3.281 3.281 0 0 1 2.8 5.047 4.518 4.518 0 0 1 3.183 6.591 5.01 5.01 0 0 1 7.343 4.585 5.159 5.159 0 0 1 9.016.418 8.312 8.312 0 0 1 13.637-3.464 5.777 5.777 0 0 1 4.472 6.9 6.355 6.355 0 0 1-1.733 10.712l-52.47.008-4.457-20.716Z" data-name="Trazado 1960"/></g><g data-name="Grupo 1218"><path fill="#fff2e0" d="M37.891.934C22.173 15.715 11.027 19.701-3.015 21.126l-.933 14.926 14.74 5.038c12.874-.373 25.235-19.01 32.871-35L37.891.933" data-name="Trazado 1961" opacity=".7"/><path fill="#ffa121" d="M40.105 1.126c-2.555 3.023-6.409 5.915-10.955 9.821l6.2-2.528a42.259 42.259 0 0 1-2.489 3.781 20.941 20.941 0 0 0 4.492-2.881c0 1.074-1.294 2.87-1.858 3.852 3.308-2.831 6.318-6.288 7.29-9.324l-2.682-2.72" data-name="Trazado 1962"/><path fill="#fff" d="M40.829 1.279a68.33 68.33 0 0 1-6.448 6.537L38 6.099c-.454.832-1.113 2-1.481 2.5a12.667 12.667 0 0 0 2.632-1.931 8.073 8.073 0 0 1-1.116 2.539 16.317 16.317 0 0 0 4.319-6.174l-1.526-1.752" data-name="Trazado 1963" opacity=".4"/></g><path fill="#d1d1ff" d="M17.36 11.548c.02.467 0 1.256-.467 1.526-.779.451-1.392-.644-1.678-1.2a1.184 1.184 0 0 1 .517-1.766c1.019-.378 1.59.568 1.628 1.44Z" data-name="Trazado 1964"/><path fill="#d1d1ff" d="M54.31 25.736c.02.467 0 1.256-.467 1.526-.779.451-1.392-.644-1.678-1.195a1.184 1.184 0 0 1 .518-1.767c1.019-.39 1.59.564 1.627 1.436Z" data-name="Trazado 1965"/><circle cx=".653" cy=".653" r=".653" fill="#d1d1ff" data-name="Elipse 87" transform="translate(12.565 5.609)"/><circle cx=".994" cy=".994" r=".994" fill="#d1d1ff" data-name="Elipse 88" transform="rotate(-26.428 60.026 -87.228)"/></g></g><g data-name="Grupo 1225"><path fill="#9192ff" d="M112.069 67.254H64.114a4.416 4.416 0 0 1-4.411-4.411V33.572h56.777v29.271a4.416 4.416 0 0 1-4.411 4.411Zm-52.18-33.5v29.089a4.229 4.229 0 0 0 4.224 4.224h47.956a4.229 4.229 0 0 0 4.224-4.224V33.759Z" data-name="Trazado 1967"/><g data-name="Grupo 1221"><path fill="#fff" d="M112.069 22.361H64.113a4.317 4.317 0 0 0-4.318 4.318v6.987h56.591v-6.987a4.317 4.317 0 0 0-4.317-4.318Z" data-name="Trazado 1968"/><path fill="#9192ff" d="M116.48 33.759H59.703v-7.08a4.416 4.416 0 0 1 4.411-4.411h47.955a4.416 4.416 0 0 1 4.411 4.411Zm-56.591-.187h56.4v-6.893a4.229 4.229 0 0 0-4.224-4.224H64.114a4.229 4.229 0 0 0-4.224 4.224Z" data-name="Trazado 1969"/></g><g data-name="Grupo 1224" transform="translate(62.706 24.666)"><circle cx="2.367" cy="2.367" r="2.367" fill="#d1d1ff" data-name="Elipse 89" transform="rotate(-78.52 3.179 2.598)"/><g data-name="Grupo 1222" transform="translate(6.415)"><circle cx="2.367" cy="2.367" r="2.367" fill="#fff" data-name="Elipse 90" transform="rotate(-45 4.041 1.674)"/><path fill="#9192ff" d="M3.347 5.808a2.46 2.46 0 1 1 2.46-2.46 2.463 2.463 0 0 1-2.46 2.46Zm0-4.734a2.274 2.274 0 1 0 2.274 2.274 2.276 2.276 0 0 0-2.274-2.274Z" data-name="Trazado 1970"/></g><g data-name="Grupo 1223" transform="translate(16.004 .995)"><rect width="13.943" height="4.519" fill="#fff" data-name="Rectángulo 966" rx="2.259" transform="translate(.093 .093)"/><path fill="#9192ff" d="M11.781 4.705H2.356a2.353 2.353 0 1 1 0-4.705h9.425a2.353 2.353 0 1 1 0 4.705ZM2.356.186a2.166 2.166 0 1 0 0 4.332h9.425a2.166 2.166 0 0 0 0-4.332Z" data-name="Trazado 1971"/></g></g></g><g data-name="Grupo 1229" transform="translate(96.946 11.525)"><g data-name="Grupo 1226"><path fill="#3335cf" d="M12.776 5.687C8.997 8.995 2.476 6.715.453 9.357l5.788 4.583Z" data-name="Trazado 1972"/><path fill="#d1d1ff" d="M.453 9.357a2.238 2.238 0 0 0 .409 2.258l4.1 4.7 1.278-2.373Z" data-name="Trazado 1973"/></g><g data-name="Grupo 1227"><path fill="#3335cf" d="M21.347 12.472c-2.354 4.437 1.36 10.259-.747 12.836l-5.788-4.583Z" data-name="Trazado 1974"/><path fill="#d1d1ff" d="M20.595 25.306a2.237 2.237 0 0 1-2.292.12l-5.513-2.915 2.017-1.788Z" data-name="Trazado 1975"/></g><path fill="#1b1b43" d="m24.282 0-5.153 1.892 4.493 3.558Z" data-name="Trazado 1976"/><path fill="#c5c5ff" d="M23.622 5.45c-.72 8.154-6.745 15.762-14.062 19.988l-6.668-5.275c2.8-8.8 8.009-15.1 16.237-18.271Z" data-name="Trazado 1977"/><path fill="#3335cf" d="m2.892 20.163-2.892 2 8.273 6.551 1.287-3.279Z" data-name="Trazado 1978"/><g data-name="Grupo 1228" transform="translate(13.757 5.512)"><circle cx="3.095" cy="3.095" r="3.095" fill="#fff" data-name="Elipse 91" transform="rotate(-6.78 6.17 .366)"/><path fill="#9192ff" d="m3.672 5.632-.02-.186a2.033 2.033 0 0 0 .518-.126l.067.174a2.21 2.21 0 0 1-.565.138Zm-.583-.015a2.184 2.184 0 0 1-.558-.167l.077-.17a2 2 0 0 0 .511.153Zm1.659-.4-.111-.15a2.027 2.027 0 0 0 .383-.371l.146.116a2.2 2.2 0 0 1-.417.401Zm-2.712-.071a2.2 2.2 0 0 1-.4-.426l.152-.108a2.022 2.022 0 0 0 .364.39Zm3.358-.685-.165-.086a2.014 2.014 0 0 0 .182-.5l.182.04a2.2 2.2 0 0 1-.198.542Zm-4.028-.257a2.218 2.218 0 0 1-.127-.569l.186-.016a2.028 2.028 0 0 0 .116.521Zm4.087-.863a2.046 2.046 0 0 0-.1-.525l.177-.058a2.219 2.219 0 0 1 .106.573Zm-4-.255-.184-.033a2.189 2.189 0 0 1 .178-.555l.168.08a2.006 2.006 0 0 0-.165.502Zm3.677-.75a2.013 2.013 0 0 0-.349-.4l.124-.14a2.209 2.209 0 0 1 .381.441Zm-3.224-.205-.142-.121a2.206 2.206 0 0 1 .433-.39l.105.154a2.02 2.02 0 0 0-.399.353Zm2.433-.5a2.006 2.006 0 0 0-.5-.172l.036-.183a2.2 2.2 0 0 1 .552.188Zm-1.56-.1-.061-.176a2.224 2.224 0 0 1 .571-.116l.013.186a2.032 2.032 0 0 0-.525.106Z" data-name="Trazado 1979"/></g><rect width="1.192" height="10.353" fill="#1b1b43" data-name="Rectángulo 967" rx=".596" transform="rotate(38.375 -24.555 21.16)"/></g></g><g data-name="Grupo 1232" transform="translate(80.557 79.801)"><path fill="#9192ff" d="M28.615 23.973h-1.12v-.187h1.12Zm-2.239 0h-1.12v-.187h1.12Zm-2.239 0h-1.12v-.187h1.12Zm-2.239 0h-1.12v-.187h1.12Zm-2.239 0h-1.12v-.187h1.12Zm-2.239 0H16.3v-.187h1.12Zm-2.239 0h-1.119v-.187h1.119Zm-2.239 0h-1.119v-.187h1.119Zm-2.239 0h-1.12v-.187h1.12Zm-2.239 0h-1.12v-.187h1.12Zm-2.24 0a3.568 3.568 0 0 1-1.128-.192l.06-.177a3.389 3.389 0 0 0 1.069.182Zm22.525 0-.007-.187a3.378 3.378 0 0 0 1.063-.213l.066.175a3.584 3.584 0 0 1-1.121.223Zm-24.662-.73a3.6 3.6 0 0 1-.787-.83l.154-.106a3.4 3.4 0 0 0 .746.787Zm26.777-.063-.117-.145a3.391 3.391 0 0 0 .724-.808l.157.1a3.586 3.586 0 0 1-.763.851Zm-28.05-1.8a3.576 3.576 0 0 1-.136-.98v-.153h.187v.153a3.4 3.4 0 0 0 .129.929Zm29.269-.1-.181-.046a3.42 3.42 0 0 0 .1-.836v-.252h.187v.252a3.6 3.6 0 0 1-.105.878ZM2.864 19.126h-.187v-1.12h.187Zm29.328-.1h-.187v-1.12h.187Zm-29.328-2.14h-.187v-1.12h.187Zm29.328-.1h-.187v-1.12h.187Zm-29.328-2.14h-.187v-1.12h.187Zm29.328-.1h-.187v-1.119h.187Zm-29.328-2.14h-.187v-1.119h.187Zm29.328-.1h-.187v-1.12h.187Zm-29.328-2.14h-.187v-1.12h.187Zm29.328-.1h-.187V8.947h.187ZM2.864 7.926h-.187V7.18a3.616 3.616 0 0 1 .02-.383l.185.02a3.471 3.471 0 0 0-.019.363Zm29.328-.1h-.187v-.647a3.449 3.449 0 0 0-.031-.459l.185-.025a3.606 3.606 0 0 1 .033.483ZM3.17 5.77 3 5.692a3.581 3.581 0 0 1 .636-.951l.137.127a3.391 3.391 0 0 0-.602.905Zm28.489-.087a3.4 3.4 0 0 0-.628-.884l.133-.131a3.584 3.584 0 0 1 .663.933ZM4.629 4.202l-.09-.163a3.551 3.551 0 0 1 1.079-.382l.033.184a3.36 3.36 0 0 0-1.023.364Zm25.528-.045a3.365 3.365 0 0 0-1.032-.332l.028-.184a3.557 3.557 0 0 1 1.089.35Zm-2.136-.37h-1.119V3.6h1.119Zm-2.239 0h-1.12V3.6h1.12Zm-2.239 0h-1.115V3.6h1.119Zm-2.239 0h-1.12V3.6h1.12Zm-2.239 0h-1.12V3.6h1.12Zm-2.239 0h-1.119V3.6h1.121Zm-2.239 0h-1.12V3.6h1.12Zm-2.239 0h-1.12V3.6h1.119Zm-2.239 0h-1.12V3.6h1.12Zm-2.239 0H6.751V3.6H7.87Z" data-name="Trazado 1980"/><rect width="29.328" height="20.739" fill="#9192ff" data-name="Rectángulo 968" rx="10.37"/><g fill="#fff" data-name="Grupo 1231"><path d="M5.099 12.114h3.175v6.449H5.099z" data-name="Rectángulo 969"/><path d="M10.417 12.322h3.175v6.242h-3.175z" data-name="Rectángulo 970"/><path d="M15.735 9.061h3.175v9.503h-3.175z" data-name="Rectángulo 971"/><path d="M21.053 6.273h3.175v12.29h-3.175z" data-name="Rectángulo 972"/></g><path fill="#fff" d="M6.144 2.921h17.039v.745H6.144z" data-name="Rectángulo 973"/></g><g data-name="Grupo 1249"><g data-name="Grupo 1245"><g data-name="Grupo 1233"><path fill="#ffa121" d="M34.817 59.556a8.844 8.844 0 0 0-3.251-4.669l-.63-.464.535 11.063 4.135-3.2Z" data-name="Trazado 1981"/><path fill="#ffbc96" d="m48.108 72.928-.919-1.8a1.826 1.826 0 0 0-1.139-.929l-2.7-.748-6.953-4.439-.786-2.725-4.135 3.2.038.777a4.089 4.089 0 0 0 2.464 3.557l6.751 2.912 3.209.071c1.034.357 1.391 1.248 2.032.927.239-.119-.7-1.658-.7-1.658l1.551 1.712Z" data-name="Trazado 1982"/><path fill="#d28572" d="m35.405 66.013.909-1.07.163.138-.909 1.07z" data-name="Rectángulo 974"/></g><g data-name="Grupo 1235"><path fill="#26289c" d="m36.015 77.409 5.058-.447a5.966 5.966 0 0 1 6.317 5.865l1.143 24.913-6.978.217Z" data-name="Trazado 1983"/><g data-name="Grupo 1234"><path fill="#1b1b43" d="m42.119 107.709.214 6.881h10.34l-5.1-4.243-.321-3.316Z" data-name="Trazado 1984"/><path fill="#fff" d="m45.267 111.854 2.175-1.675.26.339-2.174 1.675z" data-name="Rectángulo 975"/></g></g><g data-name="Grupo 1237"><g data-name="Grupo 1236"><path fill="#d1d1ff" d="m39.765 107.709.214 6.881h10.34l-5.1-4.243-.321-3.316Z" data-name="Trazado 1985"/><path fill="#fff" d="m42.915 111.854 2.175-1.675.26.339-2.174 1.675z" data-name="Rectángulo 976"/></g><path fill="#3335cf" d="M47.466 108.387h-8.557l-6.1-18.766-.854-2.627-12.194-.053a3.375 3.375 0 0 1-2.086-.875 4.965 4.965 0 0 1-1.658-4.49l1.07-7.631L35.203 76.3a8.136 8.136 0 0 1 6.916 6.409Z" data-name="Trazado 1986"/><path fill="#1b1b43" d="m34.47 86.994-1.66 2.627-.854-2.627Z" data-name="Trazado 1987"/></g><g data-name="Grupo 1238"><path fill="#ffa121" d="M32.229 72.564c-.088.353-.18.706-.274 1.061l-.642 2.621-8.45-.351-6.084-.252a2.614 2.614 0 0 1-2.452-3.145l2.837-13.651a5.182 5.182 0 0 1 4.587-4.349l6.942-.714 2.246.642c2.193 1.177 2.195 3.309 2.3 4.706a38.726 38.726 0 0 1-1.01 13.432Z" data-name="Trazado 1988"/><path fill="#1b1b43" d="M26.5 72.126c-.088.353 5.549 1.142 5.455 1.5l-.642 2.621-8.45-.351c-2.952-2.227-4.058-7.073-5.134-13.144Z" data-name="Trazado 1989" opacity=".3"/><path fill="#1b1b43" d="M24.821 57.73a5.079 5.079 0 0 0 1.263 1 4.17 4.17 0 0 0 1.509.509 2.539 2.539 0 0 0 1.535-.226 1.579 1.579 0 0 0 .825-1.261l.083.006a1.727 1.727 0 0 1-.213.814 1.622 1.622 0 0 1-.6.6 2.639 2.639 0 0 1-1.654.273 4.113 4.113 0 0 1-1.572-.563 4.44 4.44 0 0 1-1.236-1.1Z" data-name="Trazado 1990"/><path fill="#1b1b43" d="m33.427 66.069-.16-.011a36.746 36.746 0 0 0-.463-7.862l.159-.024a36.9 36.9 0 0 1 .464 7.897Z" data-name="Trazado 1991"/></g><g data-name="Grupo 1239"><path fill="#1b1b43" d="M39.836 73.658h7.951v1.569h-7.951z" data-name="Rectángulo 977"/><path fill="#9192ff" d="M61.55 75.229H45.577l7.345-14.048h15.974Z" data-name="Trazado 1992"/></g><g data-name="Grupo 1242"><path fill="#1b1b43" d="M26.58 42.55c-1.872-1.845-5.4-1.07-5.348 2.032-3.851 1.016-4.065 5.241-2.514 7.407l1.337.107.294-1.578.776 1.6 3.744.241Z" data-name="Trazado 1993"/><path fill="#ffbc96" d="M29.71 49.449v5.894c0 .054 0 .1-.006.156a1.978 1.978 0 0 1-2.467 1.761 3.979 3.979 0 0 1-2.985-3.881l.03-3.926Z" data-name="Trazado 1994"/><path fill="#1b1b43" d="M29.71 51.997v3.345c0 .054 0 .1-.006.156a5.559 5.559 0 0 1-3.844-4.071Z" data-name="Trazado 1995"/><path fill="#ffbc96" d="M32.899 49.885a10.61 10.61 0 0 1-.336 1.4c-.471 1.5-1.316 2.736-2.828 2.52-3.555-.509-5.534-4.172-5.534-4.172l2.432-2.781 1.632-2.195 4.893 2.114a18.4 18.4 0 0 1-.259 3.114Z" data-name="Trazado 1996"/><path fill="#1b1b43" d="M25.253 48.698c1.56-.05 2.767-.845 3.28-3.1 0 0 3.637 3.138 5.42 1.462 1.493-1.4-1.04-4.632-5.232-5.016a5.94 5.94 0 0 0-4.246 1.3c-2.032 1.628-2.226 5.415-.327 6.725Z" data-name="Trazado 1997"/><path fill="#ffa121" d="M23.425 44.742a1.667 1.667 0 0 1 .139-1.129 2.508 2.508 0 0 1 .732-.9 2.581 2.581 0 0 1 1.048-.49 1.89 1.89 0 0 1 1.129.087 6.257 6.257 0 0 0-.967.391 5.248 5.248 0 0 0-.817.519 4.716 4.716 0 0 0-.7.661 3.92 3.92 0 0 0-.564.861Z" data-name="Trazado 1998"/><g data-name="Grupo 1240" transform="translate(23.109 47.133)"><ellipse cx="1.217" cy="1.47" fill="#ffbc96" data-name="Elipse 92" rx="1.217" ry="1.47" transform="rotate(-21.816 2.345 .452)"/><path fill="#1b1b43" d="M1.679 2.625a1.743 1.743 0 0 0-.047-.734 2 2 0 0 0-.385-.63l.053-.065a1.067 1.067 0 0 1 .46 1.453Z" data-name="Trazado 1999"/></g><g data-name="Grupo 1241" transform="translate(27.517 47.694)"><path fill="#1b1b43" d="M3.112 1.275a.363.363 0 1 1-.361-.4.382.382 0 0 1 .361.4Z" data-name="Trazado 2000"/><path fill="#1b1b43" d="M5.009 1.59a.323.323 0 1 1-.276-.393.34.34 0 0 1 .276.393Z" data-name="Trazado 2001"/><path fill="#1b1b43" d="M3.094.271c.014.187-.284.2-.725.218s-.745.149-.748.031.322-.422.757-.5.698.027.716.251Z" data-name="Trazado 2002"/><path fill="#1b1b43" d="M4.5.451c-.032.184.187.232.513.289s.536.223.552.106a.791.791 0 0 0-.5-.567C4.736.158 4.538.232 4.5.451Z" data-name="Trazado 2003"/><path fill="#1b1b43" d="M3.976 1.922a3.133 3.133 0 0 0 .271.281l.144.134a.814.814 0 0 1 .152.17.306.306 0 0 1 .046.142.282.282 0 0 1-.036.152.527.527 0 0 1-.172.174 1.081 1.081 0 0 1-.4.145l-.031-.078a2.953 2.953 0 0 0 .319-.218.411.411 0 0 0 .1-.12c.017-.036.012-.048-.008-.089-.047-.078-.169-.182-.248-.29a1.211 1.211 0 0 1-.21-.365Z" data-name="Trazado 2004"/><path fill="#1b1b43" d="M2.162 3.239a2.681 2.681 0 0 0 .72.627 1.508 1.508 0 0 0 .909.158l.022.081a1.125 1.125 0 0 1-.517.1 1.181 1.181 0 0 1-.516-.149 1.654 1.654 0 0 1-.689-.769Z" data-name="Trazado 2005"/><circle cx=".883" cy=".883" r=".883" fill="#fe5b52" data-name="Elipse 93" opacity=".2" transform="translate(0 1.246)"/><path fill="#fe5b52" d="M5.382 2.191a10.6 10.6 0 0 1-.336 1.4.882.882 0 0 1 .336-1.4Z" data-name="Trazado 2006" opacity=".2"/></g></g><g data-name="Grupo 1244"><g data-name="Grupo 1243"><path fill="#ffa121" d="m22.828 60.324-5.1 2.425 1.6 3.79 5.346-2.465Z" data-name="Trazado 2007"/><path fill="#c5c5ff" d="M41.714 73.471c-.141-.071-.23-.118-.23-.118l.051-.1s.094.045.231.119Z" data-name="Trazado 2008"/><path fill="#ffbc96" d="M43.828 73.997c-.165.325-1.427-.25-2.015-.539.456.253 1.241.749.892 1.021-.28.216-.9-.244-2.933-1.087.308.145 2.124 1.01 1.667 1.337-.5.355-2.638-.428-2.638-.428l-1.855 1h-2.139l-7.7.049a5.611 5.611 0 0 1-1.427-.18 6.4 6.4 0 0 1-2.5-1.3 6.29 6.29 0 0 1-1.187-1.333 7.119 7.119 0 0 1-.635-1.189l-2.03-4.809 5.346-2.467 2.79 5.663 9.2 2 2.567-.642a2.7 2.7 0 0 1 1.818.391c1.184.725 2.933 2.203 2.779 2.513Z" data-name="Trazado 2009"/></g><path fill="#fe5b52" d="M25.822 74.372a2.331 2.331 0 0 1-.139.8 6.4 6.4 0 0 1-2.5-1.3 6.281 6.281 0 0 1-1.187-1.333 2.354 2.354 0 0 1 3.829 1.833Z" data-name="Trazado 2010" opacity=".2"/><path fill="#d28572" d="M36.649 71.693a17.5 17.5 0 0 1 1.944-.533 6.954 6.954 0 0 1 1-.143 3.038 3.038 0 0 1 .516.013c.086.017.171.04.257.06s.161.062.242.093a8.293 8.293 0 0 1 1.7 1.107c.527.42 1.025.871 1.508 1.342l.022.022v.027a.406.406 0 0 1-.051.289.346.346 0 0 1-.116.1.332.332 0 0 1-.134.047 1.1 1.1 0 0 1-.48-.047 4.782 4.782 0 0 1-.83-.349c-.262-.14-.52-.286-.77-.443s-.5-.32-.744-.48l.113-.181a13.3 13.3 0 0 1 1.27.841 3.4 3.4 0 0 1 .574.527.755.755 0 0 1 .112.188.35.35 0 0 1 .026.13.251.251 0 0 1-.055.146.391.391 0 0 1-.217.121 1.23 1.23 0 0 1-.206.029h-.021l-.023-.01-2.322-.973.069-.163a8.113 8.113 0 0 1 1.062.573 1.446 1.446 0 0 1 .462.43.251.251 0 0 1 .019.2.275.275 0 0 1-.138.142.768.768 0 0 1-.319.072 4.51 4.51 0 0 1-1.2-.184c-.387-.1-.767-.223-1.143-.359l.028-.079c.375.126.757.237 1.142.328a4.416 4.416 0 0 0 1.16.152c.182-.007.4-.087.31-.207a1.352 1.352 0 0 0-.414-.365 7.965 7.965 0 0 0-1.044-.545l.07-.163 2.331.953-.044-.007a1.054 1.054 0 0 0 .167-.024.212.212 0 0 0 .109-.052c.033-.013-.011-.128-.084-.214a3.229 3.229 0 0 0-.539-.489 13.148 13.148 0 0 0-1.252-.821l.113-.181c.246.157.485.328.735.477s.5.3.755.438a4.585 4.585 0 0 0 .789.336.932.932 0 0 0 .387.045l.041-.007a.228.228 0 0 0 .031-.016c.025-.007.032-.027.049-.039a.214.214 0 0 0 .023-.135l.027.049a22.16 22.16 0 0 0-1.485-1.338 8.155 8.155 0 0 0-1.645-1.1l-.226-.09c-.077-.019-.154-.04-.231-.057a2.9 2.9 0 0 0-.487-.018 7.021 7.021 0 0 0-.987.12 17.382 17.382 0 0 0-1.942.486Z" data-name="Trazado 2011"/><path fill="#1b1b43" d="m19.361 66.613-.067-.146 5.275-2.434-2.2-5.142.148-.063 2.258 5.285Z" data-name="Trazado 2012"/></g></g><g data-name="Grupo 1246" transform="translate(11.579 86.887)"><path fill="#1b1b43" d="M8.257 2.246h.28v24.103h-.28z" data-name="Rectángulo 978"/><rect width="16.794" height="3.316" fill="#d1d1ff" data-name="Rectángulo 979" rx="1.658"/><path fill="#d1d1ff" d="M5.495 25.151h5.8a2.767 2.767 0 0 1 2.767 2.767H2.728a2.767 2.767 0 0 1 2.767-2.767Z" data-name="Rectángulo 980"/></g><g data-name="Grupo 1248"><g fill="#1b1b43" data-name="Grupo 1247"><path d="m36.045 76.849.237-.15 23.889 37.867-.237.15z" data-name="Rectángulo 981"/><path d="m36.04 114.563 23.899-37.86.237.15-23.9 37.86z" data-name="Rectángulo 982"/></g><path fill="#d1d1ff" d="M27.178 75.228h41.859v3.157H27.178z" data-name="Rectángulo 983"/></g></g><g data-name="Grupo 1251"><path fill="#9192ff" d="M30.687 24.898a8.748 8.748 0 1 1 8.748-8.748 8.758 8.758 0 0 1-8.748 8.748Zm0-17.309a8.561 8.561 0 1 0 8.561 8.561 8.571 8.571 0 0 0-8.561-8.561Z" data-name="Trazado 2013"/><g data-name="Grupo 1250" transform="translate(27.084 3.204)"><circle cx="9.518" cy="9.518" r="9.518" fill="#ebebff" data-name="Elipse 94"/><path fill="#1b1b43" d="M9.522 9.698 4.245 5.561l.173-.22 5.1 4 2.842-2.407.181.214Z" data-name="Trazado 2014"/></g></g><g data-name="Grupo 1253"><g data-name="Grupo 1252"><path fill="#fff" d="M11.902 33.248H7.069a1.408 1.408 0 0 0-1.408 1.408v4.833a1.408 1.408 0 0 0 1.408 1.408h3.449l1.486 2.052v-2.058a1.407 1.407 0 0 0 1.306-1.4v-4.833a1.408 1.408 0 0 0-1.408-1.41Z" data-name="Trazado 2015"/><path fill="#9192ff" d="m12.102 43.238-1.627-2.247h-3.4a1.5 1.5 0 0 1-1.5-1.5v-4.833a1.5 1.5 0 0 1 1.5-1.5h4.827a1.5 1.5 0 0 1 1.5 1.5v4.833a1.506 1.506 0 0 1-1.306 1.487Zm-5.029-9.9a1.316 1.316 0 0 0-1.315 1.315v4.833a1.316 1.316 0 0 0 1.315 1.315h3.5l1.345 1.858v-1.854l.087-.006a1.318 1.318 0 0 0 1.219-1.31v-4.833a1.316 1.316 0 0 0-1.315-1.315Z" data-name="Trazado 2016"/></g><path fill="#9192ff" d="m9.387 39.563-1.935-2.794.46-.319 1.424 2.056 2.145-3.843.489.273Z" data-name="Trazado 2017"/></g><path fill="#1b1b43" d="M3.764 114.525H118.43v.28H3.764z" data-name="Rectángulo 984"/></g></g></svg>