<svg xmlns="http://www.w3.org/2000/svg" xmlns:xlink="http://www.w3.org/1999/xlink" width="121.229" height="114.805" viewBox="0 0 121.229 114.805">
  <defs>
    <clipPath id="clip-path">
      <path id="Trazado_1966" data-name="Trazado 1966" d="M990.783,719.757a4.318,4.318,0,0,0,4.318,4.318h47.956a4.318,4.318,0,0,0,4.317-4.318V690.579H990.783Z" transform="translate(-990.783 -690.579)" fill="none"/>
    </clipPath>
  </defs>
  <g id="Grupo_1255" data-name="Grupo 1255" transform="translate(0)" opacity="0.72">
    <g id="Grupo_1254" data-name="Grupo 1254" transform="translate(0 0)">
      <g id="Grupo_1216" data-name="Grupo 1216">
        <path id="Trazado_1955" data-name="Trazado 1955" d="M589.317,821.9l-.129-.135.81-.773.129.135Zm1.617-1.55-.131-.133c.263-.259.527-.526.785-.795l.135.129C591.464,819.821,591.2,820.09,590.934,820.35Zm1.554-1.618-.138-.126c.248-.272.5-.553.741-.836l.141.122C592.988,818.177,592.737,818.459,592.489,818.732Zm1.467-1.7-.144-.118c.233-.284.468-.577.7-.872l.147.115C594.425,816.455,594.19,816.75,593.956,817.035Zm1.381-1.768-.15-.111c.219-.294.44-.6.657-.9l.152.108C595.778,814.666,595.556,814.971,595.336,815.267Zm1.3-1.829-.155-.1q.313-.463.617-.932l.157.1Q596.949,812.974,596.635,813.438Zm10.222-1.294a2.731,2.731,0,0,1-1.005-.192l.069-.173a2.55,2.55,0,0,0,.936.178c.046,0,.081,0,.121,0l.009.186C606.943,812.144,606.892,812.141,606.857,812.145Zm1.239-.319-.093-.161a2.027,2.027,0,0,0,.744-.751l.162.092A2.212,2.212,0,0,1,608.1,811.826Zm-10.241-.269-.159-.1q.294-.475.58-.955l.16.1Q598.15,811.08,597.855,811.556Zm7.052-.26a3.269,3.269,0,0,1-.614-.968l.172-.072a3.087,3.087,0,0,0,.579.913Zm4.311-1.4-.187,0v-.05a1.937,1.937,0,0,0-.165-.792q-.042-.093-.093-.182l.162-.092q.054.1.1.2a2.125,2.125,0,0,1,.181.869Zm-10.143-.2-.143-.12a7.094,7.094,0,0,1,.795-.808l.122.141A6.916,6.916,0,0,0,599.075,809.7Zm4.929-.474a4.557,4.557,0,0,1-.032-.54,4.8,4.8,0,0,1,.038-.6l.185.023a4.6,4.6,0,0,0-.037.576,4.335,4.335,0,0,0,.031.518Zm-3.265-.965-.1-.159a7.682,7.682,0,0,1,1-.523l.074.172A7.486,7.486,0,0,0,600.738,808.259Zm7.318-.193a4.1,4.1,0,0,0-.953-.531l.07-.173a4.288,4.288,0,0,1,1,.556Zm-5.294-.681-.049-.18a8.024,8.024,0,0,1,1.11-.219l.023.185A7.824,7.824,0,0,0,602.762,807.385Zm3.284-.155a6.768,6.768,0,0,0-1.1-.115l0-.187a6.955,6.955,0,0,1,1.127.118Zm-1.595-.189-.176-.063a5.578,5.578,0,0,1,.493-1.025l.159.1A5.394,5.394,0,0,0,604.452,807.042Zm1.141-1.866-.137-.127q.082-.088.167-.172a6.068,6.068,0,0,1,.683-.581l.11.151a5.854,5.854,0,0,0-.662.563Q605.671,805.091,605.593,805.176Zm1.766-1.3-.083-.167a6.95,6.95,0,0,1,1.053-.419l.055.178A6.787,6.787,0,0,0,607.358,803.875Zm2.1-.685-.046-.181c.365-.094.728-.191,1.078-.291l.051.179C610.194,803,609.83,803.1,609.463,803.19Zm2.158-.613-.056-.178c.36-.113.716-.231,1.06-.351l.062.176C612.342,802.343,611.983,802.462,611.622,802.576Zm2.119-.741-.067-.174c.349-.135.7-.278,1.033-.423l.074.171C614.441,801.555,614.092,801.7,613.74,801.835Zm2.061-.89-.081-.168,1.007-.489.082.168Zm2.014-.979-.082-.168,1.007-.49.082.168Zm2.014-.979-.082-.168,1.007-.49.082.168Zm2.014-.979-.082-.168,1.007-.489.082.168Zm2.014-.979-.082-.168,1.007-.489.082.168Z" transform="translate(-559.363 -754.812)" fill="#9192ff"/>
        <path id="Trazado_1956" data-name="Trazado 1956" d="M1007.627,247.019a.948.948,0,0,0,0,.114h24.537a3.887,3.887,0,0,0-3.984-3.644,4.164,4.164,0,0,0-1.909.458,4.352,4.352,0,0,0-2.121-3.891,4.5,4.5,0,0,0-6.107,1.838,4.9,4.9,0,0,0-.645,2.112,8.872,8.872,0,0,0-3.656-.745C1010.367,243.261,1007.627,244.944,1007.627,247.019Z" transform="translate(-946.574 -239.497)" fill="#ebebff"/>
        <path id="Trazado_1957" data-name="Trazado 1957" d="M209.792,1029.247H189.559l0-.072a3.236,3.236,0,0,1,3.333-3.053,3.516,3.516,0,0,1,1.493.332,3.643,3.643,0,0,1,1.772-3.135,3.519,3.519,0,0,1,2.7-.341,3.944,3.944,0,0,1,2.4,1.873,4.062,4.062,0,0,1,.529,1.66,7.368,7.368,0,0,1,2.933-.576c2.8,0,5.083,1.412,5.083,3.148a.852.852,0,0,1,0,.1Zm-20.087-.14h19.959v-.023c0-1.659-2.218-3.009-4.943-3.009a7.176,7.176,0,0,0-2.966.6l-.092.042-.007-.1a3.919,3.919,0,0,0-.519-1.7,3.805,3.805,0,0,0-2.317-1.807,3.381,3.381,0,0,0-2.589.327,3.511,3.511,0,0,0-1.7,3.125l0,.117-.1-.053a3.363,3.363,0,0,0-1.532-.367A3.1,3.1,0,0,0,189.7,1029.108Z" transform="translate(-189.559 -964.389)" fill="#9192ff"/>
      </g>
      <g id="Grupo_1230" data-name="Grupo 1230" transform="translate(59.703 11.525)">
        <g id="Grupo_1220" data-name="Grupo 1220" transform="translate(0.093 22.14)">
          <g id="Grupo_1219" data-name="Grupo 1219" clip-path="url(#clip-path)">
            <path id="Trazado_1958" data-name="Trazado 1958" d="M990.783,719.757a4.318,4.318,0,0,0,4.318,4.318h47.956a4.318,4.318,0,0,0,4.317-4.318V690.579H990.783Z" transform="translate(-990.783 -690.579)" fill="#fff"/>
            <path id="Trazado_1959" data-name="Trazado 1959" d="M849.734,741.459a5.837,5.837,0,0,1,5.041-3.921,5.938,5.938,0,0,1,5.621,3.118,3.5,3.5,0,0,1,3.007,1.692,3.254,3.254,0,0,1-.1,3.358,4.748,4.748,0,0,1,3.391,2.485,4.455,4.455,0,0,1-.091,4.108,5.453,5.453,0,0,1,5.164.187,5.078,5.078,0,0,1,2.441,4.4,5.432,5.432,0,0,1,9.332.425,8.633,8.633,0,0,1,6.063-5.493,9,9,0,0,1,8.049,2.04,5.793,5.793,0,0,1,4.635,6.9,6.37,6.37,0,0,1,2.22,5.844,6.513,6.513,0,0,1-4,4.866l-54.308-.035-4.63-20.72Z" transform="translate(-852.696 -734.019)" fill="#d1d1ff"/>
            <g id="Grupo_1217" data-name="Grupo 1217" transform="translate(-11.729 10.38)" opacity="0.8">
              <path id="Trazado_1960" data-name="Trazado 1960" d="M841.53,833.609a5.546,5.546,0,0,1,10.3-.812,3.281,3.281,0,0,1,2.8,5.047,4.518,4.518,0,0,1,3.183,6.591,5.01,5.01,0,0,1,7.343,4.585,5.159,5.159,0,0,1,9.016.418,8.312,8.312,0,0,1,13.637-3.464,5.777,5.777,0,0,1,4.472,6.9,6.355,6.355,0,0,1-1.733,10.712l-52.47.008-4.457-20.716Z" transform="translate(-833.624 -829.668)" fill="#fff"/>
            </g>
            <g id="Grupo_1218" data-name="Grupo 1218" transform="translate(-3.948 0.934)">
              <path id="Trazado_1961" data-name="Trazado 1961" d="M979.727,703.095c-15.718,14.781-26.864,18.767-40.906,20.192l-.933,14.926,14.74,5.038c12.874-.373,25.235-19.01,32.871-35l-5.772-5.157" transform="translate(-937.888 -703.095)" fill="#fff2e0" opacity="0.7"/>
              <path id="Trazado_1962" data-name="Trazado 1962" d="M1392.326,705.669c-2.555,3.023-6.409,5.915-10.955,9.821l6.2-2.528a42.259,42.259,0,0,1-2.489,3.781,20.941,20.941,0,0,0,4.492-2.881c0,1.074-1.294,2.87-1.858,3.852,3.308-2.831,6.318-6.288,7.29-9.324l-2.682-2.72" transform="translate(-1348.273 -705.477)" fill="#ffa121"/>
              <path id="Trazado_1963" data-name="Trazado 1963" d="M1457.918,707.717a68.33,68.33,0,0,1-6.448,6.537l3.619-1.717c-.454.832-1.113,2-1.481,2.5a12.667,12.667,0,0,0,2.632-1.931,8.073,8.073,0,0,1-1.116,2.539,16.317,16.317,0,0,0,4.319-6.174l-1.526-1.752" transform="translate(-1413.141 -707.372)" fill="#fff" opacity="0.4"/>
            </g>
            <path id="Trazado_1964" data-name="Trazado 1964" d="M1194.423,826.418c.02.467,0,1.256-.467,1.526-.779.451-1.392-.644-1.678-1.2a1.184,1.184,0,0,1,.517-1.766C1193.814,824.6,1194.385,825.546,1194.423,826.418Z" transform="translate(-1177.063 -814.87)" fill="#d1d1ff"/>
            <path id="Trazado_1965" data-name="Trazado 1965" d="M1689.542,1016.526c.02.467,0,1.256-.467,1.526-.779.451-1.392-.644-1.678-1.195a1.184,1.184,0,0,1,.518-1.767C1688.934,1014.7,1689.505,1015.654,1689.542,1016.526Z" transform="translate(-1635.232 -990.79)" fill="#d1d1ff"/>
            <circle id="Elipse_87" data-name="Elipse 87" cx="0.653" cy="0.653" r="0.653" transform="translate(12.565 5.609)" fill="#d1d1ff"/>
            <circle id="Elipse_88" data-name="Elipse 88" cx="0.994" cy="0.994" r="0.994" transform="translate(45.096 17.6) rotate(-26.428)" fill="#d1d1ff"/>
          </g>
        </g>
        <g id="Grupo_1225" data-name="Grupo 1225" transform="translate(0 10.743)">
          <path id="Trazado_1967" data-name="Trazado 1967" d="M1041.9,723.011H993.945a4.416,4.416,0,0,1-4.411-4.411V689.329h56.777V718.6A4.416,4.416,0,0,1,1041.9,723.011Zm-52.18-33.5V718.6a4.229,4.229,0,0,0,4.224,4.224H1041.9a4.229,4.229,0,0,0,4.224-4.224V689.516Z" transform="translate(-989.534 -678.025)" fill="#9192ff"/>
          <g id="Grupo_1221" data-name="Grupo 1221">
            <path id="Trazado_1968" data-name="Trazado 1968" d="M1043.056,539.112H995.1a4.317,4.317,0,0,0-4.318,4.318v6.987h56.591V543.43A4.317,4.317,0,0,0,1043.056,539.112Z" transform="translate(-990.69 -539.019)" fill="#fff"/>
            <path id="Trazado_1969" data-name="Trazado 1969" d="M1046.311,549.352H989.534v-7.08a4.416,4.416,0,0,1,4.411-4.411H1041.9a4.416,4.416,0,0,1,4.411,4.411Zm-56.591-.187h56.4v-6.893a4.229,4.229,0,0,0-4.224-4.224H993.945a4.229,4.229,0,0,0-4.224,4.224Z" transform="translate(-989.534 -537.861)" fill="#9192ff"/>
          </g>
          <g id="Grupo_1224" data-name="Grupo 1224" transform="translate(3.003 2.398)">
            <circle id="Elipse_89" data-name="Elipse 89" cx="2.367" cy="2.367" r="2.367" transform="matrix(0.199, -0.98, 0.98, 0.199, 0, 5.196)" fill="#d1d1ff"/>
            <g id="Grupo_1222" data-name="Grupo 1222" transform="translate(6.415 0)">
              <circle id="Elipse_90" data-name="Elipse 90" cx="2.367" cy="2.367" r="2.367" transform="translate(0 3.348) rotate(-45)" fill="#fff"/>
              <path id="Trazado_1970" data-name="Trazado 1970" d="M1130.082,586.8a2.46,2.46,0,1,1,2.46-2.46A2.463,2.463,0,0,1,1130.082,586.8Zm0-4.734a2.274,2.274,0,1,0,2.274,2.274A2.276,2.276,0,0,0,1130.082,582.066Z" transform="translate(-1126.735 -580.992)" fill="#9192ff"/>
            </g>
            <g id="Grupo_1223" data-name="Grupo 1223" transform="translate(16.004 0.995)">
              <rect id="Rectángulo_966" data-name="Rectángulo 966" width="13.943" height="4.519" rx="2.259" transform="translate(0.093 0.093)" fill="#fff"/>
              <path id="Trazado_1971" data-name="Trazado 1971" d="M1256,588.027h-9.425a2.353,2.353,0,1,1,0-4.705H1256a2.353,2.353,0,1,1,0,4.705Zm-9.425-4.519a2.166,2.166,0,1,0,0,4.332H1256a2.166,2.166,0,0,0,0-4.332Z" transform="translate(-1244.219 -583.322)" fill="#9192ff"/>
            </g>
          </g>
        </g>
        <g id="Grupo_1229" data-name="Grupo 1229" transform="translate(37.243)">
          <g id="Grupo_1226" data-name="Grupo 1226" transform="translate(0.31 5.687)">
            <path id="Trazado_1972" data-name="Trazado 1972" d="M1506.956,470.111c-3.779,3.308-10.3,1.028-12.323,3.67l5.788,4.583Z" transform="translate(-1494.49 -470.111)" fill="#3335cf"/>
            <path id="Trazado_1973" data-name="Trazado 1973" d="M1492.859,519.283h0a2.238,2.238,0,0,0,.409,2.258l4.1,4.7,1.278-2.373Z" transform="translate(-1492.716 -515.613)" fill="#d1d1ff"/>
          </g>
          <g id="Grupo_1227" data-name="Grupo 1227" transform="translate(12.79 12.47)">
            <path id="Trazado_1974" data-name="Trazado 1974" d="M1693.5,561c-2.354,4.437,1.36,10.259-.747,12.836l-5.788-4.583Z" transform="translate(-1684.943 -560.998)" fill="#3335cf"/>
            <path id="Trazado_1975" data-name="Trazado 1975" d="M1667.743,676.163h0a2.237,2.237,0,0,1-2.292.12l-5.513-2.915,2.017-1.788Z" transform="translate(-1659.938 -663.327)" fill="#d1d1ff"/>
          </g>
          <path id="Trazado_1976" data-name="Trazado 1976" d="M1750.033,393.916l-5.153,1.892,4.493,3.558Z" transform="translate(-1725.751 -393.916)" fill="#1b1b43"/>
          <path id="Trazado_1977" data-name="Trazado 1977" d="M1548.046,422.822c-.72,8.154-6.745,15.762-14.062,19.988l-6.668-5.275c2.8-8.8,8.009-15.1,16.237-18.271Z" transform="translate(-1524.424 -417.372)" fill="#c5c5ff"/>
          <path id="Trazado_1978" data-name="Trazado 1978" d="M1491.453,664.079l-2.892,2,8.273,6.551,1.287-3.279Z" transform="translate(-1488.561 -643.916)" fill="#3335cf"/>
          <g id="Grupo_1228" data-name="Grupo 1228" transform="translate(13.757 5.512)">
            <circle id="Elipse_91" data-name="Elipse 91" cx="3.095" cy="3.095" r="3.095" transform="translate(0 0.731) rotate(-6.78)" fill="#fff"/>
            <path id="Trazado_1979" data-name="Trazado 1979" d="M1691.948,488.752l-.02-.186a2.033,2.033,0,0,0,.518-.126l.067.174A2.21,2.21,0,0,1,1691.948,488.752Zm-.583-.015a2.184,2.184,0,0,1-.558-.167l.077-.17a2,2,0,0,0,.511.153Zm1.659-.4-.111-.15a2.027,2.027,0,0,0,.383-.371l.146.116A2.2,2.2,0,0,1,1693.025,488.333Zm-2.712-.071a2.2,2.2,0,0,1-.4-.426l.152-.108a2.022,2.022,0,0,0,.364.39Zm3.358-.685-.165-.086a2.014,2.014,0,0,0,.182-.5l.182.04A2.2,2.2,0,0,1,1693.671,487.577Zm-4.028-.257a2.218,2.218,0,0,1-.127-.569l.186-.016a2.028,2.028,0,0,0,.116.521Zm4.087-.863a2.046,2.046,0,0,0-.1-.525l.177-.058a2.219,2.219,0,0,1,.106.573Zm-4-.255-.184-.033a2.189,2.189,0,0,1,.178-.555l.168.08A2.006,2.006,0,0,0,1689.726,486.2Zm3.677-.75a2.013,2.013,0,0,0-.349-.4l.124-.14a2.209,2.209,0,0,1,.381.441Zm-3.224-.205-.142-.121a2.206,2.206,0,0,1,.433-.39l.105.154A2.02,2.02,0,0,0,1690.179,485.247Zm2.433-.5a2.006,2.006,0,0,0-.5-.172l.036-.183a2.2,2.2,0,0,1,.552.188Zm-1.56-.1-.061-.176a2.224,2.224,0,0,1,.571-.116l.013.186A2.032,2.032,0,0,0,1691.053,484.651Z" transform="translate(-1688.276 -483.12)" fill="#9192ff"/>
          </g>
          <rect id="Rectángulo_967" data-name="Rectángulo 967" width="1.192" height="10.353" rx="0.596" transform="translate(7.831 19.815) rotate(38.375)" fill="#1b1b43"/>
        </g>
      </g>
      <g id="Grupo_1232" data-name="Grupo 1232" transform="translate(80.557 79.801)">
        <path id="Trazado_1980" data-name="Trazado 1980" d="M1330.787,1377.418h-1.12v-.187h1.12Zm-2.239,0h-1.12v-.187h1.12Zm-2.239,0h-1.12v-.187h1.12Zm-2.239,0h-1.12v-.187h1.12Zm-2.239,0h-1.12v-.187h1.12Zm-2.239,0h-1.12v-.187h1.12Zm-2.239,0h-1.119v-.187h1.119Zm-2.239,0h-1.119v-.187h1.119Zm-2.239,0h-1.12v-.187h1.12Zm-2.239,0h-1.12v-.187h1.12Zm-2.24,0a3.568,3.568,0,0,1-1.128-.192l.06-.177a3.389,3.389,0,0,0,1.069.182Zm22.525,0-.007-.187a3.378,3.378,0,0,0,1.063-.213l.066.175A3.584,3.584,0,0,1,1330.922,1377.416Zm-24.662-.73a3.6,3.6,0,0,1-.787-.83l.154-.106a3.4,3.4,0,0,0,.746.787Zm26.777-.063-.117-.145a3.391,3.391,0,0,0,.724-.808l.157.1A3.586,3.586,0,0,1,1333.037,1376.623Zm-28.05-1.8a3.576,3.576,0,0,1-.136-.98v-.153h.187v.153a3.4,3.4,0,0,0,.129.929Zm29.269-.1-.181-.046a3.42,3.42,0,0,0,.1-.836v-.252h.187v.252A3.6,3.6,0,0,1,1334.256,1374.721Zm-29.219-2.154h-.187v-1.12h.187Zm29.328-.1h-.187v-1.12h.187Zm-29.328-2.14h-.187v-1.12h.187Zm29.328-.1h-.187v-1.12h.187Zm-29.328-2.14h-.187v-1.12h.187Zm29.328-.1h-.187v-1.119h.187Zm-29.328-2.14h-.187v-1.119h.187Zm29.328-.1h-.187v-1.12h.187Zm-29.328-2.14h-.187v-1.12h.187Zm29.328-.1h-.187v-1.119h.187Zm-29.328-2.14h-.187v-.746a3.616,3.616,0,0,1,.02-.383l.185.02a3.471,3.471,0,0,0-.019.363Zm29.328-.1h-.187v-.647a3.449,3.449,0,0,0-.031-.459l.185-.025a3.606,3.606,0,0,1,.033.483Zm-29.022-2.056-.17-.078a3.581,3.581,0,0,1,.636-.951l.137.127A3.391,3.391,0,0,0,1305.343,1359.218Zm28.489-.087a3.4,3.4,0,0,0-.628-.884l.133-.131a3.584,3.584,0,0,1,.663.933Zm-27.03-1.481-.09-.163a3.551,3.551,0,0,1,1.079-.382l.033.184A3.36,3.36,0,0,0,1306.8,1357.65Zm25.528-.045a3.365,3.365,0,0,0-1.032-.332l.028-.184a3.557,3.557,0,0,1,1.089.35Zm-2.136-.37h-1.119v-.187h1.119Zm-2.239,0h-1.12v-.187h1.12Zm-2.239,0H1324.6v-.187h1.119Zm-2.239,0h-1.12v-.187h1.12Zm-2.239,0h-1.12v-.187h1.12Zm-2.239,0h-1.119v-.187H1319Zm-2.239,0h-1.12v-.187h1.12Zm-2.239,0H1313.4v-.187h1.119Zm-2.239,0h-1.12v-.187h1.12Zm-2.239,0h-1.119v-.187h1.119Z" transform="translate(-1302.172 -1353.445)" fill="#9192ff"/>
        <rect id="Rectángulo_968" data-name="Rectángulo 968" width="29.328" height="20.739" rx="10.37" fill="#9192ff"/>
        <g id="Grupo_1231" data-name="Grupo 1231" transform="translate(5.099 6.273)">
          <rect id="Rectángulo_969" data-name="Rectángulo 969" width="3.175" height="6.449" transform="translate(0 5.841)" fill="#fff"/>
          <rect id="Rectángulo_970" data-name="Rectángulo 970" width="3.175" height="6.242" transform="translate(5.318 6.049)" fill="#fff"/>
          <rect id="Rectángulo_971" data-name="Rectángulo 971" width="3.175" height="9.503" transform="translate(10.636 2.788)" fill="#fff"/>
          <rect id="Rectángulo_972" data-name="Rectángulo 972" width="3.175" height="12.29" transform="translate(15.954)" fill="#fff"/>
        </g>
        <rect id="Rectángulo_973" data-name="Rectángulo 973" width="17.039" height="0.745" transform="translate(6.144 2.921)" fill="#fff"/>
      </g>
      <g id="Grupo_1249" data-name="Grupo 1249" transform="translate(11.579 41.562)">
        <g id="Grupo_1245" data-name="Grupo 1245" transform="translate(2.693)">
          <g id="Grupo_1233" data-name="Grupo 1233" transform="translate(16.668 12.861)">
            <path id="Trazado_1981" data-name="Trazado 1981" d="M608,973.85a8.844,8.844,0,0,0-3.251-4.669l-.63-.464.535,11.063,4.135-3.2Z" transform="translate(-604.123 -968.717)" fill="#ffa121"/>
            <path id="Trazado_1982" data-name="Trazado 1982" d="M627.92,1084.735l-.919-1.8a1.826,1.826,0,0,0-1.139-.929l-2.7-.748-6.953-4.439-.786-2.725-4.135,3.2.038.777a4.089,4.089,0,0,0,2.464,3.557l6.751,2.912,3.209.071c1.034.357,1.391,1.248,2.032.927.239-.119-.7-1.658-.7-1.658l1.551,1.712Z" transform="translate(-610.752 -1066.23)" fill="#ffbc96"/>
            <rect id="Rectángulo_974" data-name="Rectángulo 974" width="1.404" height="0.214" transform="translate(4.465 11.59) rotate(-49.665)" fill="#d28572"/>
          </g>
          <g id="Grupo_1235" data-name="Grupo 1235" transform="translate(21.743 35.379)">
            <path id="Trazado_1983" data-name="Trazado 1983" d="M672.133,1270.907l5.058-.447a5.966,5.966,0,0,1,6.317,5.865l1.143,24.913-6.978.217Z" transform="translate(-672.133 -1270.439)" fill="#26289c"/>
            <g id="Grupo_1234" data-name="Grupo 1234" transform="translate(6.102 30.091)">
              <path id="Trazado_1984" data-name="Trazado 1984" d="M753.9,1674.314l.214,6.881h10.34l-5.1-4.243-.321-3.316Z" transform="translate(-753.898 -1673.637)" fill="#1b1b43"/>
              <rect id="Rectángulo_975" data-name="Rectángulo 975" width="2.746" height="0.428" transform="matrix(0.792, -0.61, 0.61, 0.792, 3.15, 4.822)" fill="#fff"/>
            </g>
          </g>
          <g id="Grupo_1237" data-name="Grupo 1237" transform="translate(1.696 32.382)">
            <g id="Grupo_1236" data-name="Grupo 1236" transform="translate(23.797 33.088)">
              <path id="Trazado_1985" data-name="Trazado 1985" d="M722.366,1674.314l.214,6.881h10.34l-5.1-4.243-.321-3.316Z" transform="translate(-722.366 -1673.637)" fill="#d1d1ff"/>
              <rect id="Rectángulo_976" data-name="Rectángulo 976" width="2.746" height="0.428" transform="matrix(0.792, -0.61, 0.61, 0.792, 3.15, 4.822)" fill="#fff"/>
            </g>
            <path id="Trazado_1986" data-name="Trazado 1986" d="M435.009,1264.728h-8.557l-6.1-18.766-.854-2.627-12.194-.053a3.375,3.375,0,0,1-2.086-.875,4.965,4.965,0,0,1-1.658-4.49l1.07-7.631,18.116,2.355a8.136,8.136,0,0,1,6.916,6.409Z" transform="translate(-403.511 -1230.285)" fill="#3335cf"/>
            <path id="Trazado_1987" data-name="Trazado 1987" d="M620.253,1405.141l-1.66,2.627-.854-2.627Z" transform="translate(-601.751 -1392.091)" fill="#1b1b43"/>
          </g>
          <g id="Grupo_1238" data-name="Grupo 1238" transform="translate(0 12.219)">
            <path id="Trazado_1988" data-name="Trazado 1988" d="M398.748,978.9c-.088.353-.18.706-.274,1.061l-.642,2.621-8.45-.351-6.084-.252a2.614,2.614,0,0,1-2.452-3.145l2.837-13.651a5.182,5.182,0,0,1,4.587-4.349l6.942-.714,2.246.642c2.193,1.177,2.195,3.309,2.3,4.706A38.726,38.726,0,0,1,398.748,978.9Z" transform="translate(-380.791 -960.117)" fill="#ffa121"/>
            <path id="Trazado_1989" data-name="Trazado 1989" d="M435.888,1089.658c-.088.353,5.549,1.142,5.455,1.5l-.642,2.621-8.45-.351c-2.952-2.227-4.058-7.073-5.134-13.144Z" transform="translate(-423.66 -1071.313)" fill="#1b1b43" opacity="0.3"/>
            <path id="Trazado_1990" data-name="Trazado 1990" d="M521.346,1013.027a5.079,5.079,0,0,0,1.263,1,4.17,4.17,0,0,0,1.509.509,2.539,2.539,0,0,0,1.535-.226,1.579,1.579,0,0,0,.825-1.261l.083.006a1.727,1.727,0,0,1-.213.814,1.622,1.622,0,0,1-.6.6,2.639,2.639,0,0,1-1.654.273,4.113,4.113,0,0,1-1.572-.563,4.44,4.44,0,0,1-1.236-1.1Z" transform="translate(-510.797 -1009.078)" fill="#1b1b43"/>
            <path id="Trazado_1991" data-name="Trazado 1991" d="M629.721,1026.857l-.16-.011a36.746,36.746,0,0,0-.463-7.862l.159-.024A36.9,36.9,0,0,1,629.721,1026.857Z" transform="translate(-610.566 -1014.569)" fill="#1b1b43"/>
          </g>
          <g id="Grupo_1239" data-name="Grupo 1239" transform="translate(25.564 19.617)">
            <rect id="Rectángulo_977" data-name="Rectángulo 977" width="7.951" height="1.569" transform="translate(0 12.479)" fill="#1b1b43"/>
            <path id="Trazado_1992" data-name="Trazado 1992" d="M816.213,1073.3H800.24l7.345-14.048h15.974Z" transform="translate(-794.499 -1059.25)" fill="#9192ff"/>
          </g>
          <g id="Grupo_1242" data-name="Grupo 1242" transform="translate(3.545)">
            <path id="Trazado_1993" data-name="Trazado 1993" d="M437.052,797.381c-1.872-1.845-5.4-1.07-5.348,2.032-3.851,1.016-4.065,5.241-2.514,7.407l1.337.107.294-1.578.776,1.6,3.744.241Z" transform="translate(-428.289 -796.393)" fill="#1b1b43"/>
            <path id="Trazado_1994" data-name="Trazado 1994" d="M519.972,902.07v5.894c0,.054,0,.1-.006.156a1.978,1.978,0,0,1-2.467,1.761A3.979,3.979,0,0,1,514.514,906l.03-3.926Z" transform="translate(-508.079 -894.183)" fill="#ffbc96"/>
            <path id="Trazado_1995" data-name="Trazado 1995" d="M539.895,929.155V932.5c0,.054,0,.1-.006.156a5.559,5.559,0,0,1-3.844-4.071Z" transform="translate(-528.002 -918.72)" fill="#1b1b43"/>
            <path id="Trazado_1996" data-name="Trazado 1996" d="M522.527,843.142a10.61,10.61,0,0,1-.336,1.4c-.471,1.5-1.316,2.736-2.828,2.52-3.555-.509-5.534-4.172-5.534-4.172l2.432-2.781,1.632-2.195,4.893,2.114A18.4,18.4,0,0,1,522.527,843.142Z" transform="translate(-507.445 -834.819)" fill="#ffbc96"/>
            <path id="Trazado_1997" data-name="Trazado 1997" d="M497.891,809.2c1.56-.05,2.767-.845,3.28-3.1,0,0,3.637,3.138,5.42,1.462,1.493-1.4-1.04-4.632-5.232-5.016a5.94,5.94,0,0,0-4.246,1.3c-2.032,1.628-2.226,5.415-.327,6.725Z" transform="translate(-490.455 -802.064)" fill="#1b1b43"/>
            <path id="Trazado_1998" data-name="Trazado 1998" d="M502.865,807.176a1.667,1.667,0,0,1,.139-1.129,2.508,2.508,0,0,1,.732-.9,2.581,2.581,0,0,1,1.048-.49,1.89,1.89,0,0,1,1.129.087,6.257,6.257,0,0,0-.967.391,5.248,5.248,0,0,0-.817.519,4.716,4.716,0,0,0-.7.661A3.92,3.92,0,0,0,502.865,807.176Z" transform="translate(-497.257 -803.996)" fill="#ffa121"/>
            <g id="Grupo_1240" data-name="Grupo 1240" transform="translate(5.292 5.571)">
              <ellipse id="Elipse_92" data-name="Elipse 92" cx="1.217" cy="1.47" rx="1.217" ry="1.47" transform="translate(0 0.904) rotate(-21.816)" fill="#ffbc96"/>
              <path id="Trazado_1999" data-name="Trazado 1999" d="M516.3,888.492a1.743,1.743,0,0,0-.047-.734,2,2,0,0,0-.385-.63l.053-.065a1.067,1.067,0,0,1,.46,1.453Z" transform="translate(-514.621 -885.867)" fill="#1b1b43"/>
            </g>
            <g id="Grupo_1241" data-name="Grupo 1241" transform="translate(9.7 6.132)">
              <path id="Trazado_2000" data-name="Trazado 2000" d="M590.992,890.679a.363.363,0,1,1-.361-.4A.382.382,0,0,1,590.992,890.679Z" transform="translate(-587.88 -889.404)" fill="#1b1b43"/>
              <path id="Trazado_2001" data-name="Trazado 2001" d="M617.418,894.961a.323.323,0,1,1-.276-.393A.34.34,0,0,1,617.418,894.961Z" transform="translate(-612.409 -893.371)" fill="#1b1b43"/>
              <path id="Trazado_2002" data-name="Trazado 2002" d="M581.442,878.824c.014.187-.284.2-.725.218s-.745.149-.748.031.322-.422.757-.5S581.424,878.6,581.442,878.824Z" transform="translate(-578.348 -878.553)" fill="#1b1b43"/>
              <path id="Trazado_2003" data-name="Trazado 2003" d="M618.519,881.745c-.032.184.187.232.513.289s.536.223.552.106a.791.791,0,0,0-.5-.567C618.755,881.452,618.557,881.526,618.519,881.745Z" transform="translate(-614.019 -881.294)" fill="#1b1b43"/>
              <path id="Trazado_2004" data-name="Trazado 2004" d="M610.632,904.311a3.133,3.133,0,0,0,.271.281l.144.134a.814.814,0,0,1,.152.17.306.306,0,0,1,.046.142.282.282,0,0,1-.036.152.527.527,0,0,1-.172.174,1.081,1.081,0,0,1-.4.145l-.031-.078a2.953,2.953,0,0,0,.319-.218.411.411,0,0,0,.1-.12c.017-.036.012-.048-.008-.089-.047-.078-.169-.182-.248-.29a1.211,1.211,0,0,1-.21-.365Z" transform="translate(-606.656 -902.389)" fill="#1b1b43"/>
              <path id="Trazado_2005" data-name="Trazado 2005" d="M586.4,921.954a2.681,2.681,0,0,0,.72.627,1.508,1.508,0,0,0,.909.158l.022.081a1.125,1.125,0,0,1-.517.1,1.181,1.181,0,0,1-.516-.149,1.654,1.654,0,0,1-.689-.769Z" transform="translate(-584.238 -918.715)" fill="#1b1b43"/>
              <circle id="Elipse_93" data-name="Elipse 93" cx="0.883" cy="0.883" r="0.883" transform="translate(0 1.246)" fill="#fe5b52" opacity="0.2"/>
              <path id="Trazado_2006" data-name="Trazado 2006" d="M623.483,907.918a10.6,10.6,0,0,1-.336,1.4.882.882,0,0,1,.336-1.4Z" transform="translate(-618.101 -905.727)" fill="#fe5b52" opacity="0.2"/>
            </g>
          </g>
          <g id="Grupo_1244" data-name="Grupo 1244" transform="translate(3.457 17.266)">
            <g id="Grupo_1243" data-name="Grupo 1243" transform="translate(0 1.496)">
              <path id="Trazado_2007" data-name="Trazado 2007" d="M432.216,1047.784l-5.1,2.425,1.6,3.79,5.346-2.465Z" transform="translate(-427.117 -1047.784)" fill="#ffa121"/>
              <path id="Trazado_2008" data-name="Trazado 2008" d="M745.65,1221.222c-.141-.071-.23-.118-.23-.118l.051-.1s.094.045.231.119Z" transform="translate(-721.665 -1208.075)" fill="#c5c5ff"/>
              <path id="Trazado_2009" data-name="Trazado 2009" d="M473.031,1107.948c-.165.325-1.427-.25-2.015-.539.456.253,1.241.749.892,1.021-.28.216-.9-.244-2.933-1.087.308.145,2.124,1.01,1.667,1.337-.5.355-2.638-.428-2.638-.428l-1.855,1H464.01l-7.7.049a5.611,5.611,0,0,1-1.427-.18,6.4,6.4,0,0,1-2.5-1.3,6.29,6.29,0,0,1-1.187-1.333,7.119,7.119,0,0,1-.635-1.189l-2.03-4.809,5.346-2.467,2.79,5.663,9.2,2,2.567-.642a2.7,2.7,0,0,1,1.818.391C471.436,1106.16,473.185,1107.638,473.031,1107.948Z" transform="translate(-446.932 -1094.275)" fill="#ffbc96"/>
            </g>
            <path id="Trazado_2010" data-name="Trazado 2010" d="M488.075,1206.839a2.331,2.331,0,0,1-.139.8,6.4,6.4,0,0,1-2.5-1.3,6.281,6.281,0,0,1-1.187-1.333,2.354,2.354,0,0,1,3.829,1.833Z" transform="translate(-479.982 -1191.295)" fill="#fe5b52" opacity="0.2"/>
            <path id="Trazado_2011" data-name="Trazado 2011" d="M680.626,1191.686a17.5,17.5,0,0,1,1.944-.533,6.954,6.954,0,0,1,1-.143,3.038,3.038,0,0,1,.516.013c.086.017.171.04.257.06s.161.062.242.093a8.293,8.293,0,0,1,1.7,1.107c.527.42,1.025.871,1.508,1.342l.022.022,0,.027a.406.406,0,0,1-.051.289.346.346,0,0,1-.116.1.332.332,0,0,1-.134.047,1.1,1.1,0,0,1-.48-.047,4.782,4.782,0,0,1-.83-.349c-.262-.14-.52-.286-.77-.443s-.5-.32-.744-.48l.113-.181a13.3,13.3,0,0,1,1.27.841,3.4,3.4,0,0,1,.574.527.755.755,0,0,1,.112.188.35.35,0,0,1,.026.13.251.251,0,0,1-.055.146.391.391,0,0,1-.217.121,1.23,1.23,0,0,1-.206.029l-.021,0-.023-.01-2.322-.973.069-.163a8.113,8.113,0,0,1,1.062.573,1.446,1.446,0,0,1,.462.43.251.251,0,0,1,.019.2.275.275,0,0,1-.138.142.768.768,0,0,1-.319.072,4.51,4.51,0,0,1-1.2-.184c-.387-.1-.767-.223-1.143-.359l.028-.079c.375.126.757.237,1.142.328a4.416,4.416,0,0,0,1.16.152c.182-.007.4-.087.31-.207a1.352,1.352,0,0,0-.414-.365,7.965,7.965,0,0,0-1.044-.545l.07-.163,2.331.953-.044-.007a1.054,1.054,0,0,0,.167-.024.212.212,0,0,0,.109-.052c.033-.013-.011-.128-.084-.214a3.229,3.229,0,0,0-.539-.489,13.148,13.148,0,0,0-1.252-.821l.113-.181c.246.157.485.328.735.477s.5.3.755.438a4.585,4.585,0,0,0,.789.336.932.932,0,0,0,.387.045l.041-.007a.228.228,0,0,0,.031-.016c.025-.007.032-.027.049-.039a.214.214,0,0,0,.023-.135l.027.049c-.473-.467-.971-.915-1.485-1.338a8.155,8.155,0,0,0-1.645-1.1l-.226-.09c-.077-.019-.154-.04-.231-.057a2.9,2.9,0,0,0-.487-.018,7.021,7.021,0,0,0-.987.12,17.382,17.382,0,0,0-1.942.486Z" transform="translate(-661.706 -1178.821)" fill="#d28572"/>
            <path id="Trazado_2012" data-name="Trazado 2012" d="M448.146,1035.529l-.067-.146,5.275-2.434-2.2-5.142.148-.063,2.258,5.285Z" transform="translate(-446.514 -1027.744)" fill="#1b1b43"/>
          </g>
        </g>
        <g id="Grupo_1246" data-name="Grupo 1246" transform="translate(0 45.325)">
          <rect id="Rectángulo_978" data-name="Rectángulo 978" width="0.28" height="24.103" transform="translate(8.257 2.246)" fill="#1b1b43"/>
          <rect id="Rectángulo_979" data-name="Rectángulo 979" width="16.794" height="3.316" rx="1.658" fill="#d1d1ff"/>
          <path id="Rectángulo_980" data-name="Rectángulo 980" d="M2.767,0h5.8a2.767,2.767,0,0,1,2.767,2.767v0a0,0,0,0,1,0,0H0a0,0,0,0,1,0,0v0A2.767,2.767,0,0,1,2.767,0Z" transform="translate(2.728 25.151)" fill="#d1d1ff"/>
        </g>
        <g id="Grupo_1248" data-name="Grupo 1248" transform="translate(15.599 33.666)">
          <g id="Grupo_1247" data-name="Grupo 1247" transform="translate(8.862 1.472)">
            <rect id="Rectángulo_981" data-name="Rectángulo 981" width="0.28" height="44.772" transform="translate(0.005 0.149) rotate(-32.247)" fill="#1b1b43"/>
            <rect id="Rectángulo_982" data-name="Rectángulo 982" width="44.772" height="0.28" transform="translate(0 37.863) rotate(-57.738)" fill="#1b1b43"/>
          </g>
          <rect id="Rectángulo_983" data-name="Rectángulo 983" width="41.859" height="3.157" fill="#d1d1ff"/>
        </g>
      </g>
      <g id="Grupo_1251" data-name="Grupo 1251" transform="translate(21.939 3.204)">
        <path id="Trazado_2013" data-name="Trazado 2013" d="M492.272,356.178a8.748,8.748,0,1,1,8.748-8.748A8.758,8.758,0,0,1,492.272,356.178Zm0-17.309a8.561,8.561,0,1,0,8.561,8.561A8.571,8.571,0,0,0,492.272,338.869Z" transform="translate(-483.524 -334.484)" fill="#9192ff"/>
        <g id="Grupo_1250" data-name="Grupo 1250" transform="translate(5.145)">
          <circle id="Elipse_94" data-name="Elipse 94" cx="9.518" cy="9.518" r="9.518" fill="#ebebff"/>
          <path id="Trazado_2014" data-name="Trazado 2014" d="M614.62,358.362l-5.277-4.137.173-.22,5.1,4,2.842-2.407.181.214Z" transform="translate(-605.098 -348.664)" fill="#1b1b43"/>
        </g>
      </g>
      <g id="Grupo_1253" data-name="Grupo 1253" transform="translate(5.568 33.155)">
        <g id="Grupo_1252" data-name="Grupo 1252">
          <path id="Trazado_2015" data-name="Trazado 2015" d="M271.658,685h-4.833a1.408,1.408,0,0,0-1.408,1.408v4.833a1.408,1.408,0,0,0,1.408,1.408h3.449l1.486,2.052v-2.058a1.407,1.407,0,0,0,1.306-1.4v-4.833A1.408,1.408,0,0,0,271.658,685Z" transform="translate(-265.324 -684.907)" fill="#fff"/>
          <path id="Trazado_2016" data-name="Trazado 2016" d="M270.7,693.833l-1.627-2.247h-3.4a1.5,1.5,0,0,1-1.5-1.5v-4.833a1.5,1.5,0,0,1,1.5-1.5H270.5a1.5,1.5,0,0,1,1.5,1.5v4.833a1.506,1.506,0,0,1-1.306,1.487Zm-5.029-9.9a1.316,1.316,0,0,0-1.315,1.315v4.833a1.316,1.316,0,0,0,1.315,1.315h3.5l1.345,1.858V691.4l.087-.006a1.318,1.318,0,0,0,1.219-1.31v-4.833a1.316,1.316,0,0,0-1.315-1.315Z" transform="translate(-264.166 -683.75)" fill="#9192ff"/>
        </g>
        <path id="Trazado_2017" data-name="Trazado 2017" d="M291.351,708.9l-1.935-2.794.46-.319,1.424,2.056L293.445,704l.489.273Z" transform="translate(-287.532 -702.492)" fill="#9192ff"/>
      </g>
      <rect id="Rectángulo_984" data-name="Rectángulo 984" width="114.666" height="0.28" transform="translate(3.764 114.525)" fill="#1b1b43"/>
    </g>
  </g>
</svg>
