<svg xmlns="http://www.w3.org/2000/svg" width="9.324" height="15.201" viewBox="0 0 9.324 15.201">
  <path id="attach_file_FILL0_wght300_GRAD0_opsz24" d="M250.095-849.483a4.537,4.537,0,0,1-1.356,3.317,4.474,4.474,0,0,1-3.3,1.368,4.486,4.486,0,0,1-3.306-1.368,4.53,4.53,0,0,1-1.36-3.317v-7.193a3.218,3.218,0,0,1,.962-2.354,3.179,3.179,0,0,1,2.346-.969,3.179,3.179,0,0,1,2.346.969,3.218,3.218,0,0,1,.962,2.354v6.808a1.905,1.905,0,0,1-.566,1.387,1.863,1.863,0,0,1-1.379.575,1.9,1.9,0,0,1-1.388-.571,1.886,1.886,0,0,1-.575-1.391v-7.024h1.2v7.024a.743.743,0,0,0,.216.542.723.723,0,0,0,.538.22.723.723,0,0,0,.538-.22.743.743,0,0,0,.216-.542v-6.816a2.106,2.106,0,0,0-.616-1.5,2.008,2.008,0,0,0-1.492-.615,2.023,2.023,0,0,0-1.5.619,2.06,2.06,0,0,0-.611,1.5v7.193a3.32,3.32,0,0,0,1,2.468A3.354,3.354,0,0,0,245.44-846a3.282,3.282,0,0,0,2.43-1.017,3.478,3.478,0,0,0,1.025-2.468v-7.408h1.2Z" transform="translate(-240.771 859.999)" fill="#818181"/>
</svg>
