<svg xmlns="http://www.w3.org/2000/svg" width="22.251" height="25.354" viewBox="0 0 22.251 25.354">
  <path id="calendar_today_FILL0_wght200_GRAD0_opsz24" d="M162.247-823.878a2.176,2.176,0,0,1-1.6-.643,2.176,2.176,0,0,1-.643-1.6v-17.758a2.176,2.176,0,0,1,.643-1.6,2.176,2.176,0,0,1,1.6-.643h2.46v-3.1h1.5v3.1h9.949v-3.1h1.391v3.1H180a2.176,2.176,0,0,1,1.6.643,2.176,2.176,0,0,1,.643,1.6v17.758a2.176,2.176,0,0,1-.643,1.6,2.176,2.176,0,0,1-1.6.643H162.247Zm0-1.391H180a.818.818,0,0,0,.588-.267.818.818,0,0,0,.267-.588v-12.2h-19.47v12.2a.818.818,0,0,0,.267.588A.818.818,0,0,0,162.247-825.268Zm-.856-14.442h19.47v-4.172a.818.818,0,0,0-.267-.588.818.818,0,0,0-.588-.267H162.247a.818.818,0,0,0-.588.267.818.818,0,0,0-.267.588Zm0,0v0Z" transform="translate(-160 849.231)" fill="#fff"/>
</svg>
