<svg xmlns="http://www.w3.org/2000/svg" width="15.991" height="18" viewBox="0 0 15.991 18">
  <path id="delete_FILL0_wght300_GRAD0_opsz24" d="M182.994-797.383a1.856,1.856,0,0,1-1.362-.565,1.856,1.856,0,0,1-.565-1.362v-13.531H180v-1.6h4.8v-.943h6.4v.943h4.8v1.6h-1.066v13.531a1.86,1.86,0,0,1-.56,1.367,1.86,1.86,0,0,1-1.367.56Zm10.333-15.458H182.666v13.531a.319.319,0,0,0,.092.236.319.319,0,0,0,.236.092h10a.314.314,0,0,0,.226-.1.314.314,0,0,0,.1-.226Zm-8.1,11.727h1.6v-9.595h-1.6Zm3.936,0h1.6v-9.595h-1.6Zm-6.5-11.727v0Z" transform="translate(-180.001 815.383)" fill="#818181"/>
</svg>
