<svg xmlns="http://www.w3.org/2000/svg" width="26.117" height="26.431" viewBox="0 0 26.117 26.431">
  <g id="Grupo_2739" data-name="Grupo 2739" transform="translate(0.209)">
    <line id="Línea_944" data-name="Línea 944" y2="25.908" transform="translate(0.791)" fill="none" stroke="#fff" stroke-width="2"/>
    <line id="Línea_945" data-name="Línea 945" y2="25.908" transform="translate(25.908 25.431) rotate(90)" fill="none" stroke="#fff" stroke-width="2"/>
    <g id="Rectángulo_4474" data-name="Rectángulo 4474" transform="translate(4.385 19.349)" fill="none" stroke="#fff" stroke-width="1">
      <rect width="8.845" height="2.211" rx="1" stroke="none"/>
      <rect x="0.5" y="0.5" width="7.845" height="1.211" rx="0.5" fill="none"/>
    </g>
    <g id="Rectángulo_4481" data-name="Rectángulo 4481" transform="translate(15.442 19.349)" fill="none" stroke="#fff" stroke-width="1">
      <rect width="7.74" height="2.211" rx="1" stroke="none"/>
      <rect x="0.5" y="0.5" width="6.74" height="1.211" rx="0.5" fill="none"/>
    </g>
    <g id="Rectángulo_4478" data-name="Rectángulo 4478" transform="translate(16.547 11.61)" fill="none" stroke="#fff" stroke-width="1">
      <rect width="6.634" height="2.211" rx="1" stroke="none"/>
      <rect x="0.5" y="0.5" width="5.634" height="1.211" rx="0.5" fill="none"/>
    </g>
    <g id="Rectángulo_4475" data-name="Rectángulo 4475" transform="translate(7.702 13.821)" fill="none" stroke="#fff" stroke-width="1">
      <rect width="6.634" height="2.211" rx="1" stroke="none"/>
      <rect x="0.5" y="0.5" width="5.634" height="1.211" rx="0.5" fill="none"/>
    </g>
    <g id="Rectángulo_4476" data-name="Rectángulo 4476" transform="translate(6.596 8.293)" fill="none" stroke="#fff" stroke-width="1">
      <rect width="6.358" height="2.211" rx="1" stroke="none"/>
      <rect x="0.5" y="0.5" width="5.358" height="1.211" rx="0.5" fill="none"/>
    </g>
    <g id="Rectángulo_4479" data-name="Rectángulo 4479" transform="translate(5.491 2.764)" fill="none" stroke="#fff" stroke-width="1">
      <rect width="8.845" height="2.211" rx="1" stroke="none"/>
      <rect x="0.5" y="0.5" width="7.845" height="1.211" rx="0.5" fill="none"/>
    </g>
    <g id="Rectángulo_4480" data-name="Rectángulo 4480" transform="translate(17.1 4.976)" fill="none" stroke="#fff" stroke-width="1">
      <rect width="7.74" height="2.211" rx="1" stroke="none"/>
      <rect x="0.5" y="0.5" width="6.74" height="1.211" rx="0.5" fill="none"/>
    </g>
  </g>
</svg>
