<svg xmlns="http://www.w3.org/2000/svg" width="22.272" height="24.641" viewBox="0 0 22.272 24.641">
  <path id="receipt_long_FILL0_wght300_GRAD0_opsz24" d="M143.276-827.665a3.162,3.162,0,0,1-2.324-.951,3.155,3.155,0,0,1-.951-2.318v-3.281h3.93v-18.09l1.814,1.562,1.839-1.562,1.839,1.562,1.839-1.562,1.839,1.562,1.839-1.562,1.839,1.562,1.839-1.562,1.839,1.562,1.814-1.562v21.365a3.162,3.162,0,0,1-.951,2.324,3.162,3.162,0,0,1-2.324.951ZM159-829.63a1.267,1.267,0,0,0,.933-.377,1.268,1.268,0,0,0,.377-.933v-18.342H145.9v15.067h11.791v3.275a1.268,1.268,0,0,0,.377.933A1.267,1.267,0,0,0,159-829.63ZM147.459-844.37v-1.965h7.433v1.965Zm0,3.93V-842.4h7.433v1.965Zm10.154-3.754a1.117,1.117,0,0,1-.82-.339,1.117,1.117,0,0,1-.339-.82,1.117,1.117,0,0,1,.339-.82,1.117,1.117,0,0,1,.82-.339,1.117,1.117,0,0,1,.82.339,1.117,1.117,0,0,1,.339.82,1.117,1.117,0,0,1-.339.82A1.117,1.117,0,0,1,157.612-844.193Zm0,3.93a1.117,1.117,0,0,1-.82-.339,1.117,1.117,0,0,1-.339-.82,1.117,1.117,0,0,1,.339-.82,1.117,1.117,0,0,1,.82-.339,1.117,1.117,0,0,1,.82.339,1.117,1.117,0,0,1,.339.82,1.117,1.117,0,0,1-.339.82A1.117,1.117,0,0,1,157.612-840.263ZM143.276-829.63h12.446v-2.62H141.966v1.31a1.268,1.268,0,0,0,.377.933A1.267,1.267,0,0,0,143.276-829.63Zm-1.31,0v0Z" transform="translate(-140.001 852.306)" fill="#fff"/>
</svg>
