<svg xmlns="http://www.w3.org/2000/svg" width="18" height="18" viewBox="0 0 18 18">
  <g id="Grupo_2741" data-name="Grupo 2741" transform="translate(-649 -308)">
    <path id="save_FILL0_wght300_GRAD0_opsz24" d="M158-816.07v12.156a1.848,1.848,0,0,1-.556,1.358,1.848,1.848,0,0,1-1.358.556H141.916a1.848,1.848,0,0,1-1.358-.556,1.848,1.848,0,0,1-.556-1.358v-14.172a1.848,1.848,0,0,1,.556-1.358,1.848,1.848,0,0,1,1.358-.556h12.156Zm-1.588.676-3.018-3.018h-11.48a.317.317,0,0,0-.234.092.317.317,0,0,0-.092.234v14.172a.317.317,0,0,0,.092.234.317.317,0,0,0,.234.092h14.172a.317.317,0,0,0,.234-.092.317.317,0,0,0,.092-.234ZM149-805.421a2.551,2.551,0,0,0,1.873-.774,2.551,2.551,0,0,0,.774-1.873,2.551,2.551,0,0,0-.774-1.873,2.551,2.551,0,0,0-1.873-.774,2.551,2.551,0,0,0-1.873.774,2.551,2.551,0,0,0-.774,1.873,2.551,2.551,0,0,0,.774,1.873A2.551,2.551,0,0,0,149-805.421Zm-5.946-7.819h8.695v-3.706h-8.695Zm-1.466-2.154v0Z" transform="translate(508.999 1128)" fill="#006ddb"/>
  </g>
</svg>
