<svg xmlns="http://www.w3.org/2000/svg" width="31.427" height="21.028" viewBox="0 0 31.427 21.028">
  <path id="visibility_FILL0_wght300_GRAD0_opsz24" d="M77.257-763.361a5.9,5.9,0,0,0,4.337-1.787,5.914,5.914,0,0,0,1.784-4.34,5.9,5.9,0,0,0-1.787-4.336,5.914,5.914,0,0,0-4.34-1.784,5.9,5.9,0,0,0-4.337,1.787,5.915,5.915,0,0,0-1.784,4.34,5.9,5.9,0,0,0,1.787,4.336,5.914,5.914,0,0,0,4.34,1.784Zm0-2.068a3.911,3.911,0,0,1-2.873-1.183,3.911,3.911,0,0,1-1.183-2.873,3.911,3.911,0,0,1,1.183-2.873,3.911,3.911,0,0,1,2.873-1.183,3.911,3.911,0,0,1,2.873,1.183,3.911,3.911,0,0,1,1.183,2.873,3.911,3.911,0,0,1-1.183,2.873A3.911,3.911,0,0,1,77.253-765.429Zm0,6.459a16.582,16.582,0,0,1-9.442-2.858,16.878,16.878,0,0,1-6.274-7.656,16.882,16.882,0,0,1,6.272-7.656A16.572,16.572,0,0,1,77.251-780a16.582,16.582,0,0,1,9.442,2.858,16.878,16.878,0,0,1,6.274,7.656,16.882,16.882,0,0,1-6.272,7.656A16.572,16.572,0,0,1,77.255-758.971ZM77.253-769.485Zm0,8.261a14.336,14.336,0,0,0,7.792-2.234,14.679,14.679,0,0,0,5.426-6.027,14.679,14.679,0,0,0-5.426-6.027,14.336,14.336,0,0,0-7.792-2.234,14.336,14.336,0,0,0-7.792,2.234,14.679,14.679,0,0,0-5.426,6.027,14.679,14.679,0,0,0,5.426,6.027A14.336,14.336,0,0,0,77.253-761.224Z" transform="translate(-61.54 779.999)" fill="#818181"/>
</svg>
