<svg xmlns="http://www.w3.org/2000/svg" width="15.101" height="15.101" viewBox="0 0 15.101 15.101">
  <path id="account_circle_FILL0_wght300_GRAD0_opsz24" d="M102.8-848.243a8.668,8.668,0,0,1,2.208-1.188,7.363,7.363,0,0,1,2.542-.436,7.363,7.363,0,0,1,2.542.436,8.667,8.667,0,0,1,2.208,1.188,6.264,6.264,0,0,0,1.175-1.886,6.13,6.13,0,0,0,.433-2.32,6.129,6.129,0,0,0-1.858-4.5,6.129,6.129,0,0,0-4.5-1.858,6.129,6.129,0,0,0-4.5,1.858,6.129,6.129,0,0,0-1.858,4.5,6.13,6.13,0,0,0,.433,2.32A6.264,6.264,0,0,0,102.8-848.243Zm4.75-3.61a2.5,2.5,0,0,1-1.836-.747,2.5,2.5,0,0,1-.747-1.836,2.5,2.5,0,0,1,.747-1.836,2.5,2.5,0,0,1,1.836-.747,2.5,2.5,0,0,1,1.836.747,2.5,2.5,0,0,1,.747,1.836,2.5,2.5,0,0,1-.747,1.836A2.5,2.5,0,0,1,107.552-851.853Zm0,6.954a7.4,7.4,0,0,1-2.951-.591,7.582,7.582,0,0,1-2.4-1.611,7.582,7.582,0,0,1-1.611-2.4,7.4,7.4,0,0,1-.592-2.951,7.4,7.4,0,0,1,.592-2.951,7.582,7.582,0,0,1,1.611-2.4,7.583,7.583,0,0,1,2.4-1.611,7.4,7.4,0,0,1,2.951-.591,7.4,7.4,0,0,1,2.951.591,7.583,7.583,0,0,1,2.4,1.611,7.582,7.582,0,0,1,1.611,2.4,7.4,7.4,0,0,1,.592,2.951,7.4,7.4,0,0,1-.592,2.951,7.582,7.582,0,0,1-1.611,2.4,7.582,7.582,0,0,1-2.4,1.611A7.4,7.4,0,0,1,107.551-844.9Zm0-1.192a6.291,6.291,0,0,0,2.075-.346,5.885,5.885,0,0,0,1.774-.968,6.044,6.044,0,0,0-1.751-.934,6.423,6.423,0,0,0-2.1-.335,6.524,6.524,0,0,0-2.1.331,5.763,5.763,0,0,0-1.747.938,5.885,5.885,0,0,0,1.774.968A6.291,6.291,0,0,0,107.551-846.091Zm0-6.954a1.347,1.347,0,0,0,.992-.4,1.347,1.347,0,0,0,.4-.992,1.346,1.346,0,0,0-.4-.992,1.347,1.347,0,0,0-.992-.4,1.346,1.346,0,0,0-.992.4,1.346,1.346,0,0,0-.4.992,1.347,1.347,0,0,0,.4.992A1.347,1.347,0,0,0,107.551-853.045ZM107.551-854.436ZM107.551-847.382Z" transform="translate(-100.001 859.999)" fill="#818181"/>
</svg>
