<svg xmlns="http://www.w3.org/2000/svg" width="25.041" height="27.534" viewBox="0 0 25.041 27.534">
  <path id="content_paste_FILL0_wght300_GRAD0_opsz24" d="M142.664-860.156a2.565,2.565,0,0,1-1.882-.78,2.565,2.565,0,0,1-.78-1.882v-19.715a2.565,2.565,0,0,1,.78-1.882,2.565,2.565,0,0,1,1.882-.78h6.49a3.324,3.324,0,0,1,1.251-1.785,3.443,3.443,0,0,1,2.117-.708,3.462,3.462,0,0,1,2.151.708,3.344,3.344,0,0,1,1.239,1.785h6.467a2.565,2.565,0,0,1,1.882.78,2.565,2.565,0,0,1,.78,1.882v19.715a2.565,2.565,0,0,1-.78,1.882,2.565,2.565,0,0,1-1.882.781H142.664Zm0-2.209h19.715a.433.433,0,0,0,.312-.142.433.433,0,0,0,.142-.312v-19.715a.433.433,0,0,0-.142-.312.433.433,0,0,0-.312-.142H159.15v3.852H145.893v-3.852h-3.229a.433.433,0,0,0-.312.142.433.433,0,0,0-.142.312v19.715a.433.433,0,0,0,.142.312A.433.433,0,0,0,142.664-862.366Zm9.858-20.452a1.29,1.29,0,0,0,.95-.381,1.29,1.29,0,0,0,.381-.95,1.289,1.289,0,0,0-.381-.95,1.29,1.29,0,0,0-.95-.381,1.29,1.29,0,0,0-.95.381,1.29,1.29,0,0,0-.381.95,1.29,1.29,0,0,0,.381.95A1.29,1.29,0,0,0,152.521-882.818Z" transform="translate(-140.001 887.69)" fill="#fff"/>
</svg>
