<svg xmlns="http://www.w3.org/2000/svg" width="21.028" height="21.028" viewBox="0 0 21.028 21.028">
  <path id="download_FILL0_wght300_GRAD0_opsz24" d="M190.515-764.174l-5.985-5.985,1.477-1.521,3.456,3.456V-780h2.1v11.776l3.456-3.456,1.477,1.521Zm-7.98,5.2a2.446,2.446,0,0,1-1.8-.736,2.446,2.446,0,0,1-.736-1.8v-3.8h2.1v3.8a.413.413,0,0,0,.135.3.412.412,0,0,0,.3.135H198.5a.412.412,0,0,0,.3-.135.413.413,0,0,0,.135-.3v-3.8h2.1v3.8a2.446,2.446,0,0,1-.736,1.8,2.446,2.446,0,0,1-1.8.736Z" transform="translate(-180.001 779.999)" fill="#818181"/>
</svg>
