<svg xmlns="http://www.w3.org/2000/svg" width="24.325" height="24.325" viewBox="0 0 24.325 24.325">
  <path id="view_kanban_FILL0_wght200_GRAD0_opsz24" d="M165.321-781h1.52v-13.683h-1.52Zm12.163-3.041H179v-10.642h-1.52ZM171.4-788.6h1.52v-6.081H171.4Zm-8.947,12.923a2.379,2.379,0,0,1-1.753-.7,2.379,2.379,0,0,1-.7-1.753v-19.413a2.379,2.379,0,0,1,.7-1.753,2.379,2.379,0,0,1,1.753-.7h19.413a2.379,2.379,0,0,1,1.753.7,2.379,2.379,0,0,1,.7,1.753v19.413a2.379,2.379,0,0,1-.7,1.753,2.379,2.379,0,0,1-1.753.7Zm0-1.52h19.413a.894.894,0,0,0,.643-.292.894.894,0,0,0,.292-.643v-19.413a.894.894,0,0,0-.292-.643.894.894,0,0,0-.643-.292H162.456a.894.894,0,0,0-.643.292.894.894,0,0,0-.292.643v19.413a.894.894,0,0,0,.292.643A.894.894,0,0,0,162.456-777.2Zm-.936-21.284v0Z" transform="translate(-160 800)" fill="#fff"/>
</svg>
