<svg xmlns="http://www.w3.org/2000/svg" width="26.241" height="23.742" viewBox="0 0 26.241 23.742">
  <path id="pageless_FILL0_wght300_GRAD0_opsz24" d="M70.405-836.257H62.259a2.176,2.176,0,0,1-1.6-.662,2.176,2.176,0,0,1-.662-1.6v-6.9h1.874v6.9a.374.374,0,0,0,.108.276.374.374,0,0,0,.276.108h8.146Zm5.431,0v-1.874h8.146a.374.374,0,0,0,.276-.108.374.374,0,0,0,.108-.276v-6.9h1.874v6.9a2.176,2.176,0,0,1-.662,1.6,2.176,2.176,0,0,1-1.6.662ZM60-850.831v-6.909a2.176,2.176,0,0,1,.662-1.6,2.176,2.176,0,0,1,1.6-.662h8.146v1.874H62.259a.374.374,0,0,0-.276.108.374.374,0,0,0-.108.276v6.909Zm24.367,0v-6.909a.374.374,0,0,0-.108-.276.374.374,0,0,0-.276-.108H75.836V-860h8.146a2.176,2.176,0,0,1,1.6.662,2.176,2.176,0,0,1,.662,1.6v6.909Z" transform="translate(-60 859.999)" fill="#fff"/>
</svg>
